<?xml version="1.0" encoding="UTF-8" standalone="no"?>
<!DOCTYPE svg  PUBLIC '-//W3C//DTD SVG 1.1//EN'  'http://www.w3.org/Graphics/SVG/1.1/DTD/svg11.dtd'>
<svg xmlns="http://www.w3.org/2000/svg">
<defs>
<font id="SegoeUIBlack-Regular" horiz-adv-x="1464">
<font-face underline-position="-119" font-weight="900" descent="-410" panose-1="2 11 10 2 4 2 4 2 2 3" units-per-em="2048" unicode-range="U+000D-2666" bbox="-219 -481 2540 1921" x-height="1024" underline-thickness="119" font-family="SegoeUIBlack" ascent="1638" cap-height="1434"/>
<missing-glyph horiz-adv-x="2048"/>
<glyph glyph-name=".notdef" horiz-adv-x="2048"/>
<glyph glyph-name=".null" horiz-adv-x="0"/>
<glyph glyph-name="uni000D" horiz-adv-x="0" unicode=""/>
<glyph glyph-name="space" horiz-adv-x="569" unicode=" "/>
<glyph glyph-name="exclam" horiz-adv-x="750" unicode="!" d="M612 178q0 -89 -64.5 -146t-172.5 -57q-105 0 -171.5 58t-66.5 145q0 88 64.5 142.5t173.5 54.5q106 0 171.5 -54.5t65.5 -142.5zM543 483h-342l-54 951h449z"/>
<glyph glyph-name="quotedbl" horiz-adv-x="1188" unicode='&quot;' d="M481 1024h-262l-45 444h356zM965 1024h-258l-52 444h359z"/>
<glyph glyph-name="numbersign" horiz-adv-x="1227" unicode="#" d="M530 864l-51 -221h219l52 221h-220zM1126 864h-122l-52 -221h142l-58 -235h-135l-67 -302h-248l63 302h-219l-65 -302h-252l63 302h-127l49 235h129l52 221h-144l47 236h146l67 317h256l-67 -317h215l67 317h256l-67 -317h123z"/>
<glyph glyph-name="dollar" horiz-adv-x="1227" unicode="$" d="M1100 442q0 -94 -41 -175.5t-120.5 -142t-193.5 -89.5v-230h-237v203q-112 2 -226.5 27.5t-148.5 54.5v3750A0C584A36"/>
<glyph glyph-name="percent" horiz-adv-x="1839" unicode="%" d="M575 1081q0 69 -25.5 109.5t-72.5 40.5q-52 0 -80 -42.5t-28 -115.5q0 -69 25.5 -108t76.5 -39q50 0 77 40t27 115zM838 1092q0 -178 -103.5 -282.5t-275.5 -104.5q-162 0 -259.5 99t-97.5 261q0 176 101.5 282.5t277.5 106.5q166 0 261.5 -97t95.5 -265zM618 0h-315 l922 1434h315zM1475 354q0 71 -27 111.5t-74 40.5q-52 0 -80 -42.5t-28 -115.5q0 -69 25.5 -108t76.5 -39q52 0 79.5 40t27.5 113zM1737 367q0 -175 -103 -281t-278 -106q-162 0 -259.5 99t-97.5 261q0 178 104 282.5t277 104.5q166 0 261.5 -95t95.5 -265z"/>
<glyph glyph-name="ampersand" horiz-adv-x="1513" unicode="&amp;" d="M543 608q-42 -20 -70.5 -69.5t-28.5 -110.5q0 -85 56.5 -136.5t138.5 -51.5q51 0 98.5 16.5t79.5 42.5zM797 1108q0 43 -31.5 73.5t-73.5 30.5q-50 0 -80 -27t-30 -75q0 -31 18.5 -63.5t85.5 -108.5q62 38 86.5 78.5t24.5 91.5zM1081 -2l-84 98q-67 -52 -187.5 -86.5 t-231.5 -34.5q-245 0 -381 106.5t-136 297.5q0 113 82 216t250 187q-143 158 -143 316q0 160 125.5 260t326.5 100q191 0 307.5 -89.5t116.5 -238.5q0 -119 -69 -205t-219 -155l204 -231q45 90 45 243h326q0 -145 -41 -260.5t-133 -210.5l287 -313h-445z"/>
<glyph glyph-name="quotesingle" horiz-adv-x="705" unicode="&apos;" d="M481 1026h-262l-45 442h356z"/>
<glyph glyph-name="parenleft" horiz-adv-x="862" unicode="(" d="M512 -326q-172 186 -254 400t-82 475q0 487 334 885h336q-150 -210 -222.5 -428.5t-72.5 -456.5q0 -247 73 -458.5t224 -416.5h-336z"/>
<glyph glyph-name="parenright" horiz-adv-x="862" unicode=")" d="M686 549q0 -263 -82.5 -477t-253.5 -398h-336q299 401 299 875q0 233 -71.5 451.5t-225.5 433.5h336q334 -396 334 -885z"/>
<glyph glyph-name="asterisk" horiz-adv-x="991" unicode="*" d="M649 989l207 -194l-231 -158l-129 250l-129 -248l-232 156l207 194l-281 27l91 256l251 -119l-59 281h303l-59 -281l252 119l90 -256z"/>
<glyph glyph-name="plus" d="M856 455v-373h-248v373h-370v247h370v371h248v-371h373v-247h-373z" unicode="+"/>
<glyph glyph-name="comma" horiz-adv-x="655" unicode="," d="M387 -238h-344l102 510h385z"/>
<glyph glyph-name="hyphen" horiz-adv-x="834" unicode="-" d="M143 393v287h547v-287h-547z"/>
<glyph glyph-name="period" horiz-adv-x="655" unicode="." d="M565 178q0 -91 -64 -147t-177 -56q-103 0 -168.5 58.5t-65.5 144.5q0 88 64.5 142.5t173.5 54.5q106 0 171.5 -54.5t65.5 -142.5z"/>
<glyph glyph-name="slash" horiz-adv-x="987" unicode="../../../../default.htm" d="M307 -238h-375l709 1672h375z"/>
<glyph glyph-name="zero" horiz-adv-x="1227" unicode="0" d="M743 729q0 214 -30 316t-97 102q-131 0 -131 -438q0 -215 30.5 -318.5t96.5 -103.5q131 0 131 442zM1163 729q0 -369 -140.5 -561.5t-410.5 -192.5q-276 0 -412.5 177t-136.5 548q0 372 147.5 565t426.5 193q526 0 526 -729z"/>
<glyph glyph-name="one" horiz-adv-x="990" unicode="1" d="M395 0v1032q-70 -41 -145 -62.5t-170 -31.5v320q135 23 251.5 72.5t238.5 135.5h251v-1466h-426z"/>
<glyph glyph-name="two" horiz-adv-x="1227" unicode="2" d="M90 0v115q0 122 30 212t94.5 169t224.5 203q114 90 151.5 129.5t56 76.5t18.5 80q0 143 -172 143q-175 0 -331 -127v349q119 60 222.5 83t212.5 23q234 0 362 -111t128 -313q0 -155 -67 -263t-249 -225q-139 -90 -184.5 -131.5t-46.5 -70.5h560v-342h-1010z"/>
<glyph glyph-name="three" horiz-adv-x="1227" unicode="3" d="M1080 410q0 -207 -150 -321t-429 -114q-104 0 -206 17.5t-175 46.5v334q67 -40 153 -63t174 -23q102 0 15606A41ADA25"/>
<glyph glyph-name="four" horiz-adv-x="1271" unicode="4" d="M651 530v420q-92 -203 -253 -420h253zM1028 1434v-904h203v-284h-204v-246h-375v246h-607v295q160 184 318.5 427t257.5 466h407z"/>
<glyph glyph-name="five" horiz-adv-x="1227" unicode="5" d="M1090 485q0 -147 -69.5 -263.5t-200.5 -181.5t-309 -65q-99 0 -206.5 17t-176.5 43v332q150 -80 317 -80q1039A54CABB"/>
<glyph glyph-name="six" horiz-adv-x="1227" unicode="6" d="M762 477q0 79 -30.5 124.5t-92.5 45.5q-59 0 -91 -47.5t-32 -128.5q0 -76 34.5 -125t88.5 -49q57 0 90 48.5t33 131.5zM1167 496q0 -144 -66.5 -263.5t-188 -187.5t-269.5 -68q-263 0 -405 175t-142 495q0 242 86 429.5t241.5 284.5t369.5 97q164 0 264 -37v-334 q-99 60 -234 60q-137 0 -222.5 -89.5t-94.5 -236.5h6q101 123 289 123q169 0 267.5 -124t98.5 -324z"/>
<glyph glyph-name="seven" horiz-adv-x="1227" unicode="7" d="M273 0q30 197 85 367t131.5 328t232.5 407h-624v332h1049v-252q-143 -255 -216.5 -426t-127 -355.5t-87.5 -400.5h-443z"/>
<glyph glyph-name="eight" horiz-adv-x="1227" unicode="8" d="M490 1040q0 -59 37.5 -104t92.5 -45q56 0 93.5 45t37.5 104q0 64 -38 107t-93 43q-56 0 -93 -43t-37 -107zM454 425q0 -77 44 -121t116 -44q73 0 117 47t44 118q0 72 -46 119.5t-115 47.5q-68 0 -114 -46.5t-46 -120.5zM67 390q0 132 67 222t197 147q-109 55 -164 141 t-55 189q0 102 65.5 187.5t182 133.5t257.5 48q147 0 264 -47.5t181 -132.5t64 -190q0 -101 -59 -189t-172 -142q140 -61 202 -151.5t62 -212.5q0 -120 -69.5 -216t-195 -148t-281.5 -52q-242 0 -394 116t-152 297z"/>
<glyph glyph-name="nine" horiz-adv-x="1227" unicode="9" d="M719 963q0 73 -33 124.5t-88 51.5q-54 0 -89.5 -43.5t-35.5 -134.5q0 -85 35 -129t88 -44q60 0 91.5 48.5t31.5 126.5zM1141 776q0 -376 -175 -588.5t-483 -212.5q-189 0 -329 56v329q42 -30 123.5 -51.5t146.5 -21.5q150 0 229.5 83t81.5 244h-6q-94 -120 -274 -120 q-107 0 -196.5 55.5t-140 155t-50.5 227.5q0 158 66.5 278t188 184t279.5 64q164 0 289 -85t187.5 -236t62.5 -361z"/>
<glyph glyph-name="colon" horiz-adv-x="655" unicode=":" d="M565 178q0 -91 -64 -147t-177 -56q-103 0 -168.5 58.5t-65.5 144.5q0 88 64.5 142.5t173.5 54.5q106 0 1710690E41AAC"/>
<glyph glyph-name="semicolon" horiz-adv-x="655" unicode=";" d="M387 -238h-344l102 510h385zM575 827q0 -91 -64.5 -146.5t-176.5 -55.5q-102 0 -168 58t-66 144q0 88 64.5 142.5t173.5 54.5q106 0 171.5 -54.5t65.5 -142.5z"/>
<glyph glyph-name="less" d="M238 436v240l991 407v-292l-703 -236v-4l703 -236v-292z" unicode="&lt;"/>
<glyph glyph-name="equal" d="M238 236v247h991v-247h-991zM238 666v247h991v-247h-991z" unicode="="/>
<glyph glyph-name="greater" d="M238 43v295l700 233v4l-700 234v295l991 -408v-239z" unicode="&gt;"/>
<glyph glyph-name="question" horiz-adv-x="866" unicode="?" d="M641 178q0 -89 -64.5 -146t-173.5 -57q-105 0 -171 58.5t-66 144.5q0 88 64.5 142.5t172.5 54.5q107 0 17206853E6A69"/>
<glyph glyph-name="at" horiz-adv-x="1944" unicode="@" d="M1092 715q0 65 -29.5 102t-77.5 37q-63 0 -106 -85t-43 -200q0 -79 25.5 -124.5t72.5 -45.5q71 0 114.5 88.5t43.5 227.5zM1843 766q0 -173 -66.5 -306t-187 -206.5t-268.5 -73.5q-88 0 -156 43t-84 107h-6q-35 -67 -95 -108.5t-132 -41.5q-141 0 -225 102.5t-84 278.5 q0 145 47 259t140 183.5t192 69.5q136 0 180 -108h4l8 86h301q-10 -92 -27.5 -306.5t-17.5 -259.5v-20q0 -25 13 -42t38 -17q60 0 98.5 90.5t38.5 265.5q0 137 -58 243.5t-169 166t-266 59.5q-183 0 -334.5 -87t-240.5 -242.5t-89 -332.5q0 -259 155 -398.5t441 -139.5 q98 0 207.5 25.5t194.5 66.5v-236q-177 -75 -447 -75q-254 0 -450.5 97.5t-297 269.5t-100.5 405q0 234 121 438.5t331.5 317t475.5 112.5q248 0 432 -82.5t283.5 -238.5t99.5 -365z"/>
<glyph glyph-name="A" horiz-adv-x="1536" unicode="A" d="M768 1122h-10q-2 -24 -14 -79t-121 -472h274l-100 390q-21 86 -29 161zM1040 0l-63 264h-428l-68 -264h-467l494 1434h536l465 -1434h-469z"/>
<glyph glyph-name="B" horiz-adv-x="1415" unicode="B" d="M907 442q0 62 -45 102t-119 40h-170v-293h144q88 0 139 40.5t51 110.5zM862 1012q0 133 -209 133h-80v-2710925B05A69"/>
<glyph glyph-name="C" horiz-adv-x="1290" unicode="C" d="M1208 39q-178 -64 -411 -64q-229 0 -395 87.5t-253.5 249t-87.5 372.5q0 227 98 404t277 273.5t412 96.5q186 0 360 -45v-399q-60 36 -143 56t-168 20q-176 0 -277.5 -101t-101.5 -274q0 -172 101.5 -271.5t271.5 -99.5q157 0 317 80v-385z"/>
<glyph glyph-name="D" horiz-adv-x="1554" unicode="D" d="M1034 731q0 105 -42.5 189t-121.5 130t-186 46h-111v-758h121q155 0 247.5 106.5t92.5 286.5zM1493 735q0 -218 -91.5 -385.5t-261.5 -258.5t-392 -91h-607v1434h594q758 0 758 -699z"/>
<glyph glyph-name="E" horiz-adv-x="1130" unicode="E" d="M141 0v1434h893v-338h-461v-209h433v-338h-433v-211h494v-338h-926z"/>
<glyph glyph-name="F" horiz-adv-x="1108" unicode="F" d="M573 1096v-258h426v-338h-426v-500h-432v1434h899v-338h-467z"/>
<glyph glyph-name="G" horiz-adv-x="1489" unicode="G" d="M1397 94q-81 -46 -242 -82.5t-307 -36.5q-377 0 -582 188.5t-205 528.5q0 228 103.5 405t291.5 269t443 92q187 0 399 -53v-377q-99 45 -190 62.5t-199 17.5q-178 0 -283.5 -107t-105.5 -294q0 -179 88.5 -280t247.5 -101q74 0 109 8v205h-275v327h707v-772z"/>
<glyph glyph-name="H" horiz-adv-x="1643" unicode="H" d="M1069 0v535h-496v-535h-432v1434h432v-531h496v531h432v-1434h-432z"/>
<glyph glyph-name="I" horiz-adv-x="714" unicode="I" d="M141 0v1434h432v-1434h-432z"/>
<glyph glyph-name="J" horiz-adv-x="1047" unicode="J" d="M922 612q0 -637 -619 -637q-50 0 -120 12t-142 36v399q51 -35 113.5 -56.5t103.5 -21.5q116 0 173.5 71.5t57.5 221.5v797h433v-822z"/>
<glyph glyph-name="K" horiz-adv-x="1413" unicode="K" d="M934 0l-318 606q-32 72 -38 99h-5v-705h-432v1434h432v-682h5q19 54 43 100l286 582h512l-407 -684l446 -750h-524z"/>
<glyph glyph-name="L" horiz-adv-x="1108" unicode="L" d="M141 0v1434h432v-1096h494v-338h-926z"/>
<glyph glyph-name="M" horiz-adv-x="2021" unicode="M" d="M1454 0v786q0 111 7 244l3 66h-12q-32 -169 -49 -234l-211 -862h-406l-221 852q-9 32 -47 244h-12q14 -336 14 -420v-676h-379v1434h647l197 -779q7 -24 18.5 -97.5t14.5 -113.5h6q11 91 35 215l184 775h637v-1434h-426z"/>
<glyph glyph-name="N" horiz-adv-x="1663" unicode="N" d="M1143 0l-506 692q-60 82 -98 148h-4q6 -106 6 -238v-602h-400v1434h408l485 -658q9 -13 22 -31t26 -37t24.5 -37t17.5 -32h4q-6 44 -6 152v643h400v-1434h-379z"/>
<glyph glyph-name="O" horiz-adv-x="1567" unicode="O" d="M1047 709q0 177 -68 279t-186 102q-129 0 -201 -98t-72 -277q0 -175 71.5 -273t194.5 -98q75 0 135 44t93 0D3634CA87"/>
<glyph glyph-name="P" horiz-adv-x="1343" unicode="P" d="M856 946q0 88 -51 133t-150 45h-82v-354h97q186 0 186 176zM1313 961q0 -147 -74.5 -261t-212.5 -176.5t-321 -62.5h-132v-461h-432v1434h588q303 0 443.5 -115t140.5 -358z"/>
<glyph glyph-name="Q" horiz-adv-x="1567" unicode="Q" d="M1047 709q0 177 -68 279t-186 102q-129 0 -201 -98t-72 -277q0 -175 71.5 -273t194.5 -98q117 0 189 99t72076C278AD5"/>
<glyph glyph-name="R" horiz-adv-x="1397" unicode="R" d="M844 979q0 72 -44 114t-138 42h-89v-328h78q87 0 140 49t53 123zM885 0l-107 309q-31 91 -80.5 143t-107.5 52h-17v-504h-432v1434h574q301 0 444.5 -98.5t143.5 -295.5q0 -148 -83.5 -248t-248.5 -145v-4q91 -28 151.5 -91t108.5 -187l141 -365h-487z"/>
<glyph glyph-name="S" horiz-adv-x="1171" unicode="S" d="M1137 434q0 -143 -76.5 -249t-214.5 -158t-332 -52q-225 0 -412 76v393q90 -66 199 -106.5t203 -40.5q71 0 110 25.5t39 74.5q0 35 -19.5 61.5t-59 49.5t-146.5 63q-346 133 -346 430q0 208 158 332.5t424 124.5q75 0 138 -6t114.5 -15t144.5 -34v-365q-181 99 -356 99 q-72 0 -116 -27t-44 -74q0 -45 35.5 -74.5t148.5 -76.5q223 -90 315.5 -197t92.5 -254z"/>
<glyph glyph-name="T" horiz-adv-x="1303" unicode="T" d="M866 1096v-1096h-434v1096h-401v338h1241v-338h-406z"/>
<glyph glyph-name="U" horiz-adv-x="1516" unicode="U" d="M1391 655q0 -345 -157.5 -512.5t-485.5 -167.5q-306 0 -464.5 167.5t-158.5 504.5v787h434v-803q0 -138 51.5 -212.5t147.5 -74.5q97 0 147.5 70t50.5 207v813h435v-779z"/>
<glyph glyph-name="V" horiz-adv-x="1438" unicode="V" d="M958 0h-485l-463 1434h465l219 -883q26 -107 29 -160h10q6 67 31 166l213 877h450z"/>
<glyph glyph-name="W" horiz-adv-x="2157" unicode="W" d="M1774 0h-459l-199 817q-9 35 -20 174h-4q-15 -123 -29 -174l-215 -817h-486l-342 1434h474l120 -844q3 -16 9 -93l6 -83h6q2 26 12 88.5t19 93.5l221 838h471l184 -850l13 -85l10 -83h4l3 35l13 139l125 844h426z"/>
<glyph glyph-name="X" horiz-adv-x="1438" unicode="X" d="M930 0l-178 393q-17 37 -22.5 72.5t-8.5 58.5h-4q-6 -24 -14 -63t-23 -76l-166 -385h-514l430 715l-391 719h522l139 -379q19 -53 35 -140h4q16 98 37 142l162 377h481l-403 -711l422 -723h-508z"/>
<glyph glyph-name="Y" horiz-adv-x="1331" unicode="Y" d="M874 498v-498h-432v492l-442 942h496l155 -451q16 -46 22.5 -80t14.5 -69h4q13 91 29 141l153 459h457z"/>
<glyph glyph-name="Z" horiz-adv-x="1313" unicode="Z" d="M616 338h648v-338h-1203v303l662 793h-621v338h1141v-301z"/>
<glyph glyph-name="bracketleft" horiz-adv-x="862" unicode="[" d="M233 -326v1760h543v-258h-201v-1244h201v-258h-543z"/>
<glyph glyph-name="backslash" horiz-adv-x="987" unicode="\" d="M719 -238l-699 1672h373l697 -1672h-371z"/>
<glyph glyph-name="bracketright" horiz-adv-x="862" unicode="]" d="M86 -326v258h201v1244h-201v258h543v-1760h-543z"/>
<glyph glyph-name="asciicircum" d="M971 629l-236 553h-6l-235 -553h-306l424 829h240l424 -829h-305z" unicode="^"/>
<glyph glyph-name="underscore" horiz-adv-x="850" unicode="_" d="M0 -297v119h850v-119h-850z"/>
<glyph glyph-name="grave" horiz-adv-x="711" unicode="`" d="M385 1186l-356 321h358l299 -321h-301z"/>
<glyph glyph-name="a" horiz-adv-x="1149" unicode="a" d="M418 348q0 -42 26.5 -69t75.5 -27q67 0 108.5 50t41.5 128v39l-144 -20q-108 -18 -108 -101zM670 0v156h-4q-102 -181 -312 -181q-145 0 -227 86t-82 230q0 302 371 350l254 33q0 50 -45 82t-121 32q-172 0 -363 -98v277q83 36 208 59t214 23q261 0 378.5 -111.5 t117.5 -372.5v-565h-389z"/>
<glyph glyph-name="b" horiz-adv-x="1315" unicode="b" d="M825 530q0 103 -39.5 155t-113.5 52q-65 0 -108.5 -54.5t-43.5 -141.5v-62q0 -88 39 -140t105 -52q77 0 119 63.5t42 179.5zM1257 543q0 -168 -55.5 -297.5t-157.5 -200t-231 -70.5q-99 0 -169.5 36.5t-111.5 94.5h-4v-106h-426v1516h426v-631h4q50 76 135.5 120 t188.5 44q194 0 297.5 -129t103.5 -377z"/>
<glyph glyph-name="c" horiz-adv-x="1014" unicode="c" d="M946 29q-41 -24 -129 -39t-203 -15q-162 0 -289.5 65.5t-197.5 183.5t-70 265q0 176 74.5 301.5t212.5 192t320 66.5q100 0 179.5 -13t102.5 -30v-332q-32 25 -92 44t-111 19q-125 0 -189.5 -59.5t-64.5 -167.5q0 -106 63.5 -164.5t174.5 -58.5q119 0 219 57v-315z"/>
<glyph glyph-name="d" horiz-adv-x="1315" unicode="d" d="M795 543q0 92 -40.5 143t-109.5 51t-112.5 -63.5t-43.5 -169.5q0 -217 150 -217q71 0 113.5 58.5t42.5 170.5v27zM786 0v119h-4q-51 -67 -133 -105.5t-162 -38.5q-131 0 -231 64.5t-149.5 180.5t-49.5 274q0 163 59 289t166 196t240 70q63 0 116.5 -18t93 -48.5 t50.5 -60.5h4v594h426v-1516h-426z"/>
<glyph glyph-name="e" horiz-adv-x="1147" unicode="e" d="M725 614q0 177 -127 177q-53 0 -89 -48.5t-42 -128.5h258zM469 391q11 -66 76 -103.5t172 -37.5q149 0 282 57v-270q-155 -62 -376 -62q-268 0 -417 137t-149 377q0 165 65.5 291t194 197.5t283.5 71.5q159 0 272 -62t171.5 -174t58.5 -262v-160h-633z"/>
<glyph glyph-name="f" horiz-adv-x="883" unicode="f" d="M891 1206q-66 23 -123 23q-71 0 -105 -36.5t-34 -98.5v-70h237v-295h-237v-729h-426v729h-172v295h172v94q0 125 58 220.5t168.5 148.5t268.5 53q114 0 193 -22v-312z"/>
<glyph glyph-name="g" horiz-adv-x="1315" unicode="g" d="M795 541q0 90 -40.5 143t-107.5 53q-72 0 -115 -64t-43 -171q0 -99 36 -157t114 -58q73 0 114.5 59.5t41.5 159.5v35zM1212 143q0 -295 -185.5 -459.5t-541.5 -164.5q-96 0 -186 15t-129 34v334q64 -40 150 -64t153 -24q143 0 229 69t86 183v63h-4q-46 -70 -126.5 -112 t-172.5 -42q-198 0 -313 137.5t-115 379.5q0 166 60 293t167 195.5t236 68.5q177 0 264 -131h4v106h424v-881z"/>
<glyph glyph-name="h" horiz-adv-x="1264" unicode="h" d="M762 0v584q0 153 -117 153q-57 0 -87 -43.5t-30 -111.5v-582h-426v1516h426v-631h4q55 79 133.5 121.5t168.5 42.5q166 0 253 -106.5t87 -313.5v-629h-412z"/>
<glyph glyph-name="i" horiz-adv-x="631" unicode="i" d="M102 0v1024h426v-1024h-426zM553 1300q0 -90 -65.5 -146t-172.5 -56q-104 0 -170.5 58t-66.5 144q0 88 64.5 142.5t172.5 54.5q107 0 172.5 -54.5t65.5 -142.5z"/>
<glyph glyph-name="j" horiz-adv-x="631" unicode="j" d="M528 -10q0 -135 -53 -246.5t-156 -168t-245 -56.5q-78 0 -170 30v312q56 -31 102 -31q53 0 74.5 35.5t21.50349D2AA87"/>
<glyph glyph-name="k" horiz-adv-x="1214" unicode="k" d="M760 0l-228 526h-4v-526h-426v1516h426v-973h4l207 481h480l-277 -469l293 -555h-475z"/>
<glyph glyph-name="l" horiz-adv-x="631" unicode="l" d="M102 0v1516h426v-1516h-426z"/>
<glyph glyph-name="m" horiz-adv-x="1946" unicode="m" d="M1430 0v590q0 74 -26.5 110.5t-86.5 36.5q-59 0 -92 -44.5t-33 -123.5v-569h-426v580q0 157 -107 157q-65 0 -98 -45.5t-33 -130.5v-561h-426v1024h426v-162h4q24 43 76.5 87.5t118.5 72t143 27.5q109 0 183.5 -43t124.5 -136q54 86 144 132.5t200 46.5q161 0 247 -105 t86 -303v-641h-425z"/>
<glyph glyph-name="n" horiz-adv-x="1282" unicode="n" d="M766 0v559q0 95 -28.5 136.5t-92.5 41.5q-55 0 -86 -43t-31 -110v-584h-426v1024h426v-160h4q51 88 137 136.5t187 48.5q336 0 336 -424v-625h-426z"/>
<glyph glyph-name="o" horiz-adv-x="1298" unicode="o" d="M809 528q0 209 -160 209t-160 -219q0 -231 162 -231q158 0 158 241zM1241 530q0 -259 -156.5 -407t-437.5 -148q-279 0 -434.5 144.5t-155.5 398.5q0 163 73 283t208 184t311 64q182 0 315.5 -67t205 -186t71.5 -266z"/>
<glyph glyph-name="p" horiz-adv-x="1315" unicode="p" d="M825 530q0 97 -37.5 152t-115.5 55q-68 0 -110 -58t-42 -159v-20q0 -97 36 -155t108 -58q77 0 119 63.5t42 179.5zM1257 543q0 -168 -57 -297t-161 -200t-234 -71q-180 0 -273 131h-4v-577h-426v1495h426v-139h4q51 77 132 120.5t184 43.5q198 0 303.5 -132t105.5 -374z "/>
<glyph glyph-name="q" horiz-adv-x="1315" unicode="q" d="M795 539q0 93 -40.5 145.5t-107.5 52.5q-70 0 -114 -64t-44 -171q0 -99 37 -157t111 -58t116 58t42 161v33zM786 -471v588h-4q-48 -64 -129.5 -103t-167.5 -39q-127 0 -223.5 60t-150.5 174.5t-54 282.5q0 166 60 293t167 195.5t236 68.5q175 0 262 -131h4v106h426v-1495 h-426z"/>
<glyph glyph-name="r" horiz-adv-x="893" unicode="r" d="M872 659q-24 11 -65 20t-68 9q-211 0 -211 -244v-444h-426v1024h426v-180h4q39 97 111 147.5t168 50.5q35 0 61 -12v-371z"/>
<glyph glyph-name="s" horiz-adv-x="989" unicode="s" d="M934 340q0 -174 -132.5 -269.5t-369.5 -95.5q-69 0 -170.5 14t-165.5 34v299q189 -84 316 -84q125 0 125 65q0 27 -29 44.5t-152 58.5q-136 43 -198 114t-62 185q0 159 126.5 251.5t355.5 92.5q134 0 284 -39v-287q-63 27 -138 45t-126 18q-42 0 -67 -14t-25 -39 q0 -29 27 -47t108 -43q157 -46 225 -118t68 -185z"/>
<glyph glyph-name="t" horiz-adv-x="854" unicode="t" d="M823 14q-29 -14 -95 -26.5t-159 -12.5q-178 0 -278.5 98t-100.5 279v377h-161v295h161v201l420 116v-317h213v-295h-213v-307q0 -135 107 -135q50 0 106 22v-295z"/>
<glyph glyph-name="u" horiz-adv-x="1282" unicode="u" d="M754 0v158h-4q-53 -73 -95.5 -107t-96 -55t-124.5 -21q-168 0 -256 109t-88 322v618h426v-586q0 -151 113 -151q62 0 93.5 41t31.5 116v580h426v-1024h-426z"/>
<glyph glyph-name="v" horiz-adv-x="1204" unicode="v" d="M848 0h-506l-342 1024h444l125 -559q30 -135 33 -203h6q2 20 5.5 41t148.5 721h442z"/>
<glyph glyph-name="w" horiz-adv-x="1731" unicode="w" d="M1430 0h-443l-102 498q-19 90 -19 159h-6q-11 -106 -22 -153l-111 -504h-442l-271 1024h428l88 -596l15 -133h6q13 117 18 137l131 592h406l113 -592l9 -71l5 -64h6l3 29l91 698h383z"/>
<glyph glyph-name="x" horiz-adv-x="1272" unicode="x" d="M944 545l330 -545h-490l-110 233q-19 39 -43 107h-4q-21 -68 -27 -83.5t-117 -256.5h-487l340 516l-320 508h492l110 -238q22 -41 44 -112h4q29 87 41 114l104 236h465z"/>
<glyph glyph-name="y" horiz-adv-x="1176" unicode="y" d="M301 -481q-60 0 -129 10.5t-123 30.5v321q25 -19 74.5 -35t93.5 -16q119 0 158 94l33 80l-428 1020h471l124 -494q36 -138 39 -186h4q3 22 8.5 49t155.5 631h414l-377 -1053q-85 -242 -210.5 -347t-307.5 -105z"/>
<glyph glyph-name="z" horiz-adv-x="1042" unicode="z" d="M584 295h422v-295h-981v197l460 532h-417v295h929v-242z"/>
<glyph glyph-name="braceleft" horiz-adv-x="862" unicode="{" d="M762 -326q-185 0 -292 38.5t-154.5 120t-47.5 249.5v180q0 180 -149 180v224q149 0 149 182v168q0 176 46.5 258.5t153 121t294.5 38.5v-224q-82 0 -121 -37t-39 -126v-142q0 -136 -37 -222t-121 -126v-4q83 -40 120.5 -129t37.5 -234v-127q0 -90 37 -127.5t123 -37.5 v-224z"/>
<glyph glyph-name="bar" horiz-adv-x="815" unicode="|" d="M244 -481v2048h327v-2048h-327z"/>
<glyph glyph-name="braceright" horiz-adv-x="862" unicode="}" d="M743 442q-149 0 -149 -182v-168q0 -176 -46.5 -258.5t-153 -121t-294.5 -38.5v224q83 0 121.5 37t38.5 126v142q0 135 36.5 221t121.5 127v4q-83 41 -120.5 131t-37.5 232v126q0 89 -36 127.5t-124 38.5v224q186 0 292.5 -38.5t154 -120t47.5 -249.5v-180 q0 -180 149 -180v-224z"/>
<glyph glyph-name="asciitilde" d="M1270 776q-6 -175 -93 -281t-231 -106q-80 0 -139 20.5t-134 64.5q-76 44 -116 44q-48 0 -78.5 -36t-36.5 -105h-247q5 181 93 285t238 104q69 0 121.5 -17t102.5 -44q47 -26 86 -47t77 -21q48 0 77 39.5t32 99.5h248z" unicode="~"/>
<glyph glyph-name="uni00A0" horiz-adv-x="561" unicode=" "/>
<glyph glyph-name="exclamdown" horiz-adv-x="750" unicode="¡" d="M154 -410l53 951h342l53 -951h-448zM612 846q0 -88 -64.5 -142.5t-172.5 -54.5t-173 55.5t-65 141.5q0 89 64.5 146t173.5 57q105 0 171 -58.5t66 -144.5z"/>
<glyph glyph-name="cent" horiz-adv-x="1227" unicode="¢" d="M1032 205q-48 -27 -147 -41v-195h-238v185q-139 8 -258 79.5t-178 182.5t-59 252q0 151 57 267.5t172.5 192t265.5 91.5v206h238v-206q103 -10 147 -37v-334q-25 23 -98.5 44t-126.5 21q-131 0 -201.5 -58t-70.5 -167q0 -105 67 -165t186 -60q58 0 126 15t118 44v-317z "/>
<glyph glyph-name="sterling" horiz-adv-x="1227" unicode="£" d="M166 0v291q95 24 139.5 83.5t44.5 164.5v65h-164v262h164v144q0 209 130.5 328.5t363.5 119.5q117 0 241 -55v-324q-31 26 -92.5 47t-105.5 21q-82 0 -120 -48t-38 -126v-107h246v-262h-246v-33q0 -77 -33 -144.5t-90 -115.5h584v-311h-1024z"/>
<glyph glyph-name="currency" horiz-adv-x="1139" unicode="¤" d="M788 727q0 87 -66 150t-153 63q-92 0 -155.5 -63t-63.5 -150q0 -88 64 -151.5t155 -63.5q89 0 154 62t65 153zM946 188l-145 142q-110 -60 -232 -60q-121 0 -231 60l-145 -142l-173 174l146 138q-62 113 -62 225q0 116 62 225l-146 140l173 174l145 -142q110 60 231 60 q122 0 232 -60l145 142l172 -174l-145 -140q61 -108 61 -225q0 -114 -61 -225l145 -138z"/>
<glyph glyph-name="yen" horiz-adv-x="1227" unicode="¥" d="M877 793h243v-209h-293v-123h293v-213h-293v-248h-409v248h-301v213h301v123h-301v209h245l-344 641h406l192 -478l25 -59h4l25 59l182 478h385z"/>
<glyph glyph-name="brokenbar" horiz-adv-x="815" unicode="¦" d="M244 -481v934h327v-934h-327zM244 657v910h327v-910h-327z"/>
<glyph glyph-name="section" horiz-adv-x="1063" unicode="§" d="M694 682q0 38 -18 58t-63 43t-146 63q-51 -34 -51 -86q0 -55 51.5 -94.5t165.5 -83.5q23 11 42 36.5t19 630763CBAA2B"/>
<glyph glyph-name="dieresis" horiz-adv-x="1024" unicode="¨" d="M453 1339q0 -71 -51.5 -117.5t-141.5 -46.5q-85 0 -138.5 47.5t-53.5 116.5q0 71 53 115t139 44q87 0 140 03CE349A02"/>
<glyph glyph-name="copyright" horiz-adv-x="1755" unicode="©" d="M1186 324q-128 -66 -273 -66q-135 0 -244.5 57t-171 158.5t-61.5 224.5q0 216 141 348t369 132q120 0 240 0670286A7E"/>
<glyph glyph-name="ordfeminine" horiz-adv-x="852" unicode="ª" d="M336 961q0 -32 22.5 -51t53.5 -19q35 0 60.5 28.5t25.5 63.5v59l-76 -8q-34 -3 -60 -21t-26 -52zM498 717v88h-4q-58 -66 -104.5 -87.5t-113.5 -21.5q-92 0 -154.5 62.5t-62.5 156.5q0 115 69 174.5t210 77.5l160 21q0 45 -34 63.5t-102 18.5q-39 0 -108.5 -22 t-128.5 -50v203q64 24 144.5 38.5t158.5 14.5q132 0 203.5 -32t106 -103t34.5 -191v-411h-274z"/>
<glyph glyph-name="guillemotleft" horiz-adv-x="1294" unicode="«" d="M379 201l-346 336l346 344h334l-351 -344l353 -336h-336zM926 201l-346 336l346 344h334l-351 -344l353 -336h-336z"/>
<glyph glyph-name="logicalnot" d="M981 236v342h-743v247h991v-589h-248z" unicode="¬"/>
<glyph glyph-name="uni00AD" horiz-adv-x="834" unicode="­" d="M143 393v287h547v-287h-547z"/>
<glyph glyph-name="registered" horiz-adv-x="1755" unicode="®" d="M977 879q0 34 -25.5 58t-85.5 24h-82v-170h101q42 0 67 23.5t25 64.5zM979 276l-53 242q-8 38 -27.5 61t-409D54E1A6F"/>
<glyph glyph-name="macron" horiz-adv-x="741" unicode="¯" d="M43 1145v223h655v-223h-655z"/>
<glyph glyph-name="degree" horiz-adv-x="791" unicode="°" d="M522 1184q0 46 -30 77t-74 31q-47 0 -78 -31t-31 -77t32 -78.5t77 -32.5q43 0 73.5 32.5t30.5 78.5zM700 1184q0 -74 -37.5 -138t-104 -101.5t-140.5 -37.5q-118 0 -200.5 80.5t-82.5 196.5q0 113 81.5 193.5t201.5 80.5q117 0 199.5 -80t82.5 -194z"/>
<glyph glyph-name="plusminus" d="M238 0v248h985v-248h-985zM856 725v-373h-248v373h-364v248h364v383h248v-383h375v-248h-375z" unicode="±"/>
<glyph glyph-name="uni00B2" horiz-adv-x="758" unicode="²" d="M49 584v190l258 232q53 47 68.5 72.5t15.5 68.5q0 28 -19.5 50t-66.5 22q-79 0 -205 -101v258q60 32 123 55t135 23q153 0 239.5 -70.5t86.5 -197.5q0 -59 -24 -111t-72 -104.5t-199 -167.5v-4h299v-215h-639z"/>
<glyph glyph-name="uni00B3" horiz-adv-x="758" unicode="³" d="M690 836q0 -125 -106.5 -199t-276.5 -74q-80 0 -136 16.5t-99 34.5v197q106 -53 217 -53q135 0 135 80q0 37 -34.5 58.5t-100.5 21.5h-139v194h131q56 0 87 20t31 56q0 32 -27 52t-75 20q-113 0 -203 -56v193q124 57 256 57q147 0 230.5 -59t83.5 -164q0 -74 -38 -123.5 t-104 -67.5v-4q77 -16 122.5 -70t45.5 -130z"/>
<glyph glyph-name="acute" horiz-adv-x="633" unicode="´" d="M285 1186h-301l299 321h358z"/>
<glyph glyph-name="uni00B5" horiz-adv-x="1294" unicode="µ" d="M772 0l2 137h-4q-18 -59 -68 -103t-102 -44q-48 0 -76 14h-4l4 -305h-422v1325h426v-539q0 -186 107 -186q45 0 79.5 23t51.5 65v637h426v-1024h-420z"/>
<glyph glyph-name="paragraph" horiz-adv-x="1147" unicode="¶" d="M948 1225v-1225h-227v1225h-98v-1225h-228v774q-125 14 -204.5 108t-79.5 226q0 141 93.5 233.5t237.5 92.5h615v-209h-109z"/>
<glyph glyph-name="periodcentered" horiz-adv-x="655" unicode="·" d="M565 713q0 -91 -64 -147t-177 -56q-102 0 -168 58t-66 145q0 89 65.5 142.5t172.5 53.5q105 0 171 -53.5t66 -142.5z"/>
<glyph glyph-name="cedilla" horiz-adv-x="457" unicode="¸" d="M514 -244q0 -111 -90.5 -170t-257.5 -59q-53 0 -115 6v172q37 -8 82 -8q57 0 86 16.5t29 42.5q0 31 -23.5 45.5t-79.5 14.5h-18l-21 -2v186h213v-66q195 -14 195 -178z"/>
<glyph glyph-name="uni00B9" horiz-adv-x="758" unicode="¹" d="M106 584v215h179v405l-199 -33v215l459 68v-655h164v-215h-603z"/>
<glyph glyph-name="ordmasculine" horiz-adv-x="950" unicode="º" d="M586 1083q0 73 -30 113.5t-81 40.5q-113 0 -113 -158q0 -164 113 -164q54 0 82.5 43.5t28.5 124.5zM893 100D23EA4A9C"/>
<glyph glyph-name="guillemotright" horiz-adv-x="1294" unicode="»" d="M369 201h-336l352 336l-350 344h334l346 -344zM915 201h-335l352 336l-350 344h333l347 -344z"/>
<glyph glyph-name="onequarter" horiz-adv-x="1950" unicode="¼" d="M1538 623h-8q-14 -41 -39 -76l-123 -195h166v187q0 46 4 84zM1886 156h-110v-156h-242v156h-404v178l343 516h303v-498h110v-196zM700 0h-315l922 1434h315zM84 584v215h178v405l-199 -33v215l459 68v-655h164v-215h-602z"/>
<glyph glyph-name="onehalf" horiz-adv-x="1976" unicode="½" d="M1221 0v190l258 232q49 44 66.5 70.5t17.5 70.5q0 28 -19.5 50t-66.5 22q-31 0 -83.5 -21.5t-121.5 -78.5v258q60 32 123 54.5t135 22.5q154 0 239.5 -70.5t85.5 -197.5q0 -41 -11 -77.5t-35 -75t-62 -77t-186 -153.5v-4h299v-215h-639zM707 0h-316l922 1434h315z M111 584v215h178v405l-199 -33v215l459 68v-655h164v-215h-602z"/>
<glyph glyph-name="threequarters" horiz-adv-x="2005" unicode="¾" d="M1563 623h-9q-15 -44 -38 -76l-123 -195h166v187q0 46 4 84zM1911 156h-111v-156h-241v156h-404v178l342 50E767E7A37"/>
<glyph glyph-name="questiondown" horiz-adv-x="866" unicode="¿" d="M858 -362q-65 -37 -176.5 -64t-198.5 -27q-245 0 -374 96.5t-129 280.5q0 222 215 391q73 58 103 102t30 10D60A4FA13"/>
<glyph glyph-name="Agrave" horiz-adv-x="1536" unicode="À" d="M768 1122h-10q-2 -24 -14 -79t-121 -472h274l-100 390q-21 86 -29 161zM1040 0l-63 264h-428l-68 -264h-467l494 1434h536l465 -1434h-469zM716 1567l-356 321h358l299 -321h-301z"/>
<glyph glyph-name="Aacute" horiz-adv-x="1536" unicode="Á" d="M768 1122h-10q-2 -24 -14 -79t-121 -472h274l-100 390q-21 86 -29 161zM1040 0l-63 264h-428l-68 -264h-467l494 1434h536l465 -1434h-469zM821 1567h-301l299 321h358z"/>
<glyph glyph-name="Acircumflex" horiz-adv-x="1536" unicode="Â" d="M768 1122h-10q-2 -24 -14 -79t-121 -472h274l-100 390q-21 86 -29 161zM1040 0l-63 264h-428l-68 -264h-467l494 1434h536l465 -1434h-469zM914 1567l-148 153l-147 -153h-262l256 321h317l256 -321h-272z"/>
<glyph glyph-name="Atilde" horiz-adv-x="1536" unicode="Ã" d="M768 1122h-10q-2 -24 -14 -79t-121 -472h274l-100 390q-21 86 -29 161zM1040 0l-63 264h-428l-68 -264h-467l494 1434h536l465 -1434h-469zM1159 1921q0 -165 -60 -252.5t-173 -87.5q-88 0 -170 49q-34 20 -62.5 38t-60.5 18q-38 0 -60 -31t-22 -88h-174q0 170 61.5 255 t167.5 85q102 0 189 -58q29 -18 55 -32.5t57 -14.5q34 0 55 29.5t21 89.5h176z"/>
<glyph glyph-name="Adieresis" horiz-adv-x="1536" unicode="Ä" d="M768 1122h-10q-2 -24 -14 -79t-121 -472h274l-100 390q-21 86 -29 161zM1040 0l-63 264h-428l-68 -264h-460669C11ACC"/>
<glyph glyph-name="Aring" horiz-adv-x="1536" unicode="Å" d="M768 1106h-10q-9 -57 -13 -74t-114 -430h258l-94 359q-14 55 -19 90zM879 1548q0 35 -26.5 61.5t-80.5 26.5q-49 0 -73.5 -25.5t-24.5 -62.5t27 -62.5t71 -25.5q48 0 77.5 25t29.5 63zM1040 0l-63 264h-428l-68 -264h-467l494 1434q-27 54 -27 114q0 116 81.5 186 t209.5 70q136 0 216.5 -71t80.5 -185q0 -67 -25 -114l465 -1434h-469z"/>
<glyph glyph-name="AE" horiz-adv-x="2030" unicode="Æ" d="M1040 1096h-55l-240 -525h295v525zM1040 0v264h-432l-119 -264h-501l747 1434h1198v-338h-460v-209h432v-338h-432v-211h493v-338h-926z"/>
<glyph glyph-name="Ccedilla" horiz-adv-x="1290" unicode="Ç" d="M1208 39q-132 -50 -346 -62v-43q195 -14 195 -178q0 -111 -90.5 -170t-257.5 -59q-53 0 -115 6v172q37 -8 82 -8q57 0 86 16.5t29 42.5q0 31 -23.5 45.5t-79.5 14.5h-18l-21 -2v172q-184 25 -316 118t-202 241.5t-70 338.5q0 227 98 404t277 273.5t412 96.5 q186 0 360 -45v-399q-60 36 -143 56t-168 20q-176 0 -277.5 -101t-101.5 -274q0 -172 101.5 -271.5t271.5 -99.5q157 0 317 80v-385z"/>
<glyph glyph-name="Egrave" horiz-adv-x="1130" unicode="È" d="M141 0v1434h893v-338h-461v-209h433v-338h-433v-211h494v-338h-926zM537 1567l-356 321h358l299 -321h-301z"/>
<glyph glyph-name="Eacute" horiz-adv-x="1130" unicode="É" d="M141 0v1434h893v-338h-461v-209h433v-338h-433v-211h494v-338h-926zM665 1567h-301l299 321h358z"/>
<glyph glyph-name="Ecircumflex" horiz-adv-x="1130" unicode="Ê" d="M141 0v1434h893v-338h-461v-209h433v-338h-433v-211h494v-338h-926zM726 1567l-148 153l-147 -153h-262l256 321h317l256 -321h-272z"/>
<glyph glyph-name="Edieresis" horiz-adv-x="1130" unicode="Ë" d="M141 0v1434h893v-338h-461v-209h433v-338h-433v-211h494v-338h-926zM527 1720q0 -71 -51.5 -117.5t-141.5 0E705B8A61"/>
<glyph glyph-name="Igrave" horiz-adv-x="714" unicode="Ì" d="M141 0v1434h432v-1434h-432zM337 1567l-356 321h358l299 -321h-301z"/>
<glyph glyph-name="Iacute" horiz-adv-x="714" unicode="Í" d="M141 0v1434h432v-1434h-432zM441 1567h-301l299 321h358z"/>
<glyph glyph-name="Icircumflex" horiz-adv-x="772" unicode="Î" d="M141 0v1434h432v-1434h-432zM532 1567l-148 153l-147 -153h-262l256 321h317l256 -321h-272z"/>
<glyph glyph-name="Idieresis" horiz-adv-x="772" unicode="Ï" d="M141 0v1434h432v-1434h-432zM331 1720q0 -71 -51.5 -117.5t-141.5 -46.5q-85 0 -138.5 47.5t-53.5 116.5q009FFC01A5C "/>
<glyph glyph-name="Eth" horiz-adv-x="1554" unicode="Ð" d="M1034 731q0 105 -42.5 189t-121.5 130t-186 46h-111v-209h240v-338h-240v-211h121q155 0 247.5 106.5t92.5 286.5zM1493 735q0 -218 -91.5 -385.5t-261.5 -258.5t-392 -91h-607v549h-166v338h166v547h594q758 0 758 -699z"/>
<glyph glyph-name="Ntilde" horiz-adv-x="1663" unicode="Ñ" d="M1143 0l-506 692q-60 82 -98 148h-4q6 -106 6 -238v-602h-400v1434h408l485 -658q9 -13 22 -31t26 -37t24.5 -37t17.5 -32h4q-6 44 -6 152v643h400v-1434h-379zM1223 1921q0 -165 -60 -252.5t-173 -87.5q-88 0 -170 49q-34 20 -62.5 38t-60.5 18q-38 0 -60 -31t-22 -88 h-174q0 170 61.5 255t167.5 85q102 0 189 -58q29 -18 55 -32.5t57 -14.5q34 0 55 29.5t21 89.5h176z"/>
<glyph glyph-name="Ograve" horiz-adv-x="1567" unicode="Ò" d="M1047 709q0 177 -68 279t-186 102q-129 0 -201 -98t-72 -277q0 -175 71.5 -273t194.5 -98q75 0 135 44t93 126t33 195zM1505 721q0 -216 -93 -386.5t-260 -265t-374 -94.5q-202 0 -367.5 91.5t-257.5 257t-92 374.5q0 219 93 394t261 270.5t382 95.5q206 0 368.5 -91.5 t251 -261t88.5 -384.5zM727 1567l-356 321h358l299 -321h-301z"/>
<glyph glyph-name="Oacute" horiz-adv-x="1567" unicode="Ó" d="M1047 709q0 177 -68 279t-186 102q-129 0 -201 -98t-72 -277q0 -175 71.5 -273t194.5 -98q75 0 135 44t93 126t33 195zM1505 721q0 -216 -93 -386.5t-260 -265t-374 -94.5q-202 0 -367.5 91.5t-257.5 257t-92 374.5q0 219 93 394t261 270.5t382 95.5q206 0 368.5 -91.5 t251 -261t88.5 -384.5zM830 1567h-301l299 321h358z"/>
<glyph glyph-name="Ocircumflex" horiz-adv-x="1567" unicode="Ô" d="M1047 709q0 177 -68 279t-186 102q-129 0 -201 -98t-72 -277q0 -175 71.5 -273t194.5 -98q75 0 135 44t93 126t33 195zM1505 721q0 -216 -93 -386.5t-260 -265t-374 -94.5q-202 0 -367.5 91.5t-257.5 257t-92 374.5q0 219 93 394t261 270.5t382 95.5q206 0 368.5 -91.5 t251 -261t88.5 -384.5zM930 1567l-148 153l-147 -153h-262l256 321h317l256 -321h-272z"/>
<glyph glyph-name="Otilde" horiz-adv-x="1567" unicode="Õ" d="M1047 709q0 177 -68 279t-186 102q-129 0 -201 -98t-72 -277q0 -175 71.5 -273t194.5 -98q75 0 135 44t93 126t33 195zM1505 721q0 -216 -93 -386.5t-260 -265t-374 -94.5q-202 0 -367.5 91.5t-257.5 257t-92 374.5q0 219 93 394t261 270.5t382 95.5q206 0 368.5 -91.5 t251 -261t88.5 -384.5zM1179 1921q0 -165 -60 -252.5t-173 -87.5q-88 0 -170 49q-34 20 -62.5 38t-60.5 18q-38 0 -60 -31t-22 -88h-174q0 170 61.5 255t167.5 85q102 0 189 -58q29 -18 55 -32.5t57 -14.5q34 0 55 29.5t21 89.5h176z"/>
<glyph glyph-name="Odieresis" horiz-adv-x="1567" unicode="Ö" d="M1047 709q0 177 -68 279t-186 102q-129 0 -201 -98t-72 -277q0 -175 71.5 -273t194.5 -98q75 0 135 44t93 02827C9A2A"/>
<glyph glyph-name="multiply" d="M1071 66l-336 340l-336 -340l-178 176l336 333l-338 340l170 179l346 -340l344 340l164 -189l-334 -330l338 -335z" unicode="×"/>
<glyph glyph-name="Oslash" horiz-adv-x="1567" unicode="Ø" d="M969 1083q-79 58 -174 58q-150 0 -236 -119.5t-86 -319.5q0 -97 10 -165zM1094 707q0 86 -11 194l-481 -547q82 -61 186 -61q84 0 155 51.5t111 144t40 218.5zM1505 721q0 -216 -93 -386.5t-260 -265t-374 -94.5q-228 0 -409 117l-146 -164l-160 133l150 172 q-152 193 -152 465q0 219 93 394t261 270.5t382 95.5q230 0 401 -112l127 143l162 -133l-133 -152q151 -195 151 -483z"/>
<glyph glyph-name="Ugrave" horiz-adv-x="1516" unicode="Ù" d="M1391 655q0 -345 -157.5 -512.5t-485.5 -167.5q-306 0 -464.5 167.5t-158.5 504.5v787h434v-803q0 -138 51.5 -212.5t147.5 -74.5q97 0 147.5 70t50.5 207v813h435v-779zM706 1567l-356 321h358l299 -321h-301z"/>
<glyph glyph-name="Uacute" horiz-adv-x="1516" unicode="Ú" d="M1391 655q0 -345 -157.5 -512.5t-485.5 -167.5q-306 0 -464.5 167.5t-158.5 504.5v787h434v-803q0 -138 51.5 -212.5t147.5 -74.5q97 0 147.5 70t50.5 207v813h435v-779zM811 1567h-301l299 321h358z"/>
<glyph glyph-name="Ucircumflex" horiz-adv-x="1516" unicode="Û" d="M1391 655q0 -345 -157.5 -512.5t-485.5 -167.5q-306 0 -464.5 167.5t-158.5 504.5v787h434v-803q0 -138 51.5 -212.5t147.5 -74.5q97 0 147.5 70t50.5 207v813h435v-779zM901 1567l-148 153l-147 -153h-262l256 321h317l256 -321h-272z"/>
<glyph glyph-name="Udieresis" horiz-adv-x="1516" unicode="Ü" d="M1391 655q0 -345 -157.5 -512.5t-485.5 -167.5q-306 0 -464.5 167.5t-158.5 504.5v787h434v-803q0 -138 510F1C353AA3"/>
<glyph glyph-name="Yacute" horiz-adv-x="1331" unicode="Ý" d="M874 498v-498h-432v492l-442 942h496l155 -451q16 -46 22.5 -80t14.5 -69h4q13 91 29 141l153 459h457zM738 1534h-301l299 321h358z"/>
<glyph glyph-name="Thorn" horiz-adv-x="1343" unicode="Þ" d="M856 743q0 88 -50.5 133.5t-150.5 45.5h-82v-355h97q186 0 186 176zM1313 758q0 -147 -74.5 -261t-212.5 -176.5t-321 -62.5h-132v-258h-432v1434h432v-203h156q303 0 443.5 -115t140.5 -358z"/>
<glyph glyph-name="germandbls" horiz-adv-x="1417" unicode="ß" d="M1360 416q0 -126 -69 -230.5t-185 -157.5t-266 -53q-50 0 -99 5.5t-133 27.5v330q88 -51 172 -51q75 0 111.5 40t36.5 109q0 87 -84 134.5t-236 47.5v283q98 0 156.5 41.5t58.5 132.5q0 65 -38.5 109.5t-102.5 44.5q-74 0 -114 -55.5t-40 -149.5v-1024h-426v989 q0 167 70.5 291t206 192t328.5 68q168 0 291.5 -55.5t190 -153.5t66.5 -217q0 -114 -63 -198.5t-172 -118.5v-4q159 -34 249.5 -131t90.5 -246z"/>
<glyph glyph-name="agrave" horiz-adv-x="1149" unicode="à" d="M418 348q0 -42 26.5 -69t75.5 -27q67 0 108.5 50t41.5 128v39l-144 -20q-108 -18 -108 -101zM670 0v156h-4q-102 -181 -312 -181q-145 0 -227 86t-82 230q0 302 371 350l254 33q0 50 -45 82t-121 32q-172 0 -363 -98v277q83 36 208 59t214 23q261 0 378.5 -111.5 t117.5 -372.5v-565h-389zM500 1186l-356 321h358l299 -321h-301z"/>
<glyph glyph-name="aacute" horiz-adv-x="1149" unicode="á" d="M418 348q0 -42 26.5 -69t75.5 -27q67 0 108.5 50t41.5 128v39l-144 -20q-108 -18 -108 -101zM670 0v156h-4q-102 -181 -312 -181q-145 0 -227 86t-82 230q0 302 371 350l254 33q0 50 -45 82t-121 32q-172 0 -363 -98v277q83 36 208 59t214 23q261 0 378.5 -111.5 t117.5 -372.5v-565h-389zM607 1186h-301l299 321h358z"/>
<glyph glyph-name="acircumflex" horiz-adv-x="1149" unicode="â" d="M418 348q0 -42 26.5 -69t75.5 -27q67 0 108.5 50t41.5 128v39l-144 -20q-108 -18 -108 -101zM670 0v156h-4q-102 -181 -312 -181q-145 0 -227 86t-82 230q0 302 371 350l254 33q0 50 -45 82t-121 32q-172 0 -363 -98v277q83 36 208 59t214 23q261 0 378.5 -111.5 t117.5 -372.5v-565h-389zM725 1186l-148 153l-147 -153h-262l256 321h317l256 -321h-272z"/>
<glyph glyph-name="atilde" horiz-adv-x="1149" unicode="ã" d="M418 348q0 -42 26.5 -69t75.5 -27q67 0 108.5 50t41.5 128v39l-144 -20q-108 -18 -108 -101zM670 0v156h-4q-102 -181 -312 -181q-145 0 -227 86t-82 230q0 302 371 350l254 33q0 50 -45 82t-121 32q-172 0 -363 -98v277q83 36 208 59t214 23q261 0 378.5 -111.5 t117.5 -372.5v-565h-389zM970 1540q0 -165 -60 -252.5t-173 -87.5q-88 0 -170 49q-34 20 -62.5 38t-60.5 18q-38 0 -60 -31t-22 -88h-174q0 170 61.5 255t167.5 85q102 0 189 -58q29 -18 55 -32.5t57 -14.5q34 0 55 29.5t21 89.5h176z"/>
<glyph glyph-name="adieresis" horiz-adv-x="1149" unicode="ä" d="M418 348q0 -42 26.5 -69t75.5 -27q67 0 108.5 50t41.5 128v39l-144 -20q-108 -18 -108 -101zM670 0v156h-407E7BDAAD9"/>
<glyph glyph-name="aring" horiz-adv-x="1149" unicode="å" d="M418 348q0 -42 26.5 -69t75.5 -27q67 0 108.5 50t41.5 128v39l-144 -20q-108 -18 -108 -101zM670 0v156h-40162C24A5E"/>
<glyph glyph-name="ae" horiz-adv-x="1716" unicode="æ" d="M668 459l-138 -10q-55 -5 -84.5 -33.5t-29.5 -69.5q0 -40 30 -67t76 -27q65 0 105.5 49t40.5 123v35zM1294 614q0 177 -127 177q-53 0 -91 -52t-38 -125h256zM1038 391q31 -141 250 -141q149 0 285 59v-270q-163 -64 -395 -64q-133 0 -242.5 41t-171.5 111h-4 q-143 -152 -344 -152q-181 0 -276 84.5t-95 237.5q0 146 96 235.5t271 106.5l258 25q0 59 -45 91.5t-123 32.5q-81 0 -177 -25.5t-184 -72.5v277q95 36 207 59t187 23q206 0 342 -93h4q149 93 307 93q220 0 351.5 -136.5t131.5 -367.5v-154h-633z"/>
<glyph glyph-name="ccedilla" horiz-adv-x="1014" unicode="ç" d="M946 29q-84 -50 -316 -54v-41q195 -14 195 -178q0 -111 -90.5 -170t-257.5 -59q-54 0 -115 6v172q37 -8 82 -8q57 0 86 16.5t29 42.5q0 31 -23 45.5t-80 14.5h-18l-21 -2v189q-169 52 -264.5 182t-95.5 304q0 176 74.5 301.5t212.5 192t320 66.5q100 0 179.5 -13 t102.5 -30v-332q-32 25 -92 44t-111 19q-126 0 -190 -59t-64 -168q0 -106 63 -164.5t175 -58.5q119 0 219 57v-315z"/>
<glyph glyph-name="egrave" horiz-adv-x="1147" unicode="è" d="M725 614q0 177 -127 177q-53 0 -89 -48.5t-42 -128.5h258zM469 391q11 -66 76 -103.5t172 -37.5q149 0 282 57v-270q-155 -62 -376 -62q-268 0 -417 137t-149 377q0 165 65.5 291t194 197.5t283.5 71.5q159 0 272 -62t171.5 -174t58.5 -262v-160h-633zM511 1186l-356 321 h358l299 -321h-301z"/>
<glyph glyph-name="eacute" horiz-adv-x="1147" unicode="é" d="M725 614q0 177 -127 177q-53 0 -89 -48.5t-42 -128.5h258zM469 391q11 -66 76 -103.5t172 -37.5q149 0 282 57v-270q-155 -62 -376 -62q-268 0 -417 137t-149 377q0 165 65.5 291t194 197.5t283.5 71.5q159 0 272 -62t171.5 -174t58.5 -262v-160h-633zM646 1186h-301 l299 321h358z"/>
<glyph glyph-name="ecircumflex" horiz-adv-x="1147" unicode="ê" d="M725 614q0 177 -127 177q-53 0 -89 -48.5t-42 -128.5h258zM469 391q11 -66 76 -103.5t172 -37.5q149 0 282 57v-270q-155 -62 -376 -62q-268 0 -417 137t-149 377q0 165 65.5 291t194 197.5t283.5 71.5q159 0 272 -62t171.5 -174t58.5 -262v-160h-633zM733 1186l-148 153 l-147 -153h-262l256 321h317l256 -321h-272z"/>
<glyph glyph-name="edieresis" horiz-adv-x="1147" unicode="ë" d="M725 614q0 177 -127 177q-53 0 -89 -48.5t-42 -128.5h258zM469 391q11 -66 76 -103.5t172 -37.5q149 0 2820E8ADD1A2C"/>
<glyph glyph-name="igrave" horiz-adv-x="631" unicode="ì" d="M102 0v1024h426v-1024h-426zM264 1186l-356 321h358l299 -321h-301z"/>
<glyph glyph-name="iacute" horiz-adv-x="631" unicode="í" d="M102 0v1024h426v-1024h-426zM368 1186h-301l299 321h358z"/>
<glyph glyph-name="icircumflex" horiz-adv-x="631" unicode="î" d="M102 0v1024h426v-1024h-426zM463 1186l-148 153l-147 -153h-262l256 321h317l256 -321h-272z"/>
<glyph glyph-name="idieresis" horiz-adv-x="631" unicode="ï" d="M102 0v1024h426v-1024h-426zM257 1339q0 -71 -51.5 -117.5t-141.5 -46.5q-85 0 -138.5 47.5t-53.5 116.5q00000055A69 "/>
<glyph glyph-name="eth" horiz-adv-x="1278" unicode="ð" d="M788 528q0 213 -147 213q-71 0 -111.5 -59t-40.5 -160q0 -118 41 -174.5t107 -56.5q72 0 111.5 60t39.5 17089D860A34"/>
<glyph glyph-name="ntilde" horiz-adv-x="1282" unicode="ñ" d="M766 0v559q0 95 -28.5 136.5t-92.5 41.5q-55 0 -86 -43t-31 -110v-584h-426v1024h426v-160h4q51 88 137 136.5t187 48.5q336 0 336 -424v-625h-426zM1032 1540q0 -165 -60 -252.5t-173 -87.5q-88 0 -170 49q-34 20 -62.5 38t-60.5 18q-38 0 -60 -31t-22 -88h-174 q0 170 61.5 255t167.5 85q102 0 189 -58q29 -18 55 -32.5t57 -14.5q34 0 55 29.5t21 89.5h176z"/>
<glyph glyph-name="ograve" horiz-adv-x="1298" unicode="ò" d="M809 528q0 209 -160 209t-160 -219q0 -231 162 -231q158 0 158 241zM1241 530q0 -259 -156.5 -407t-437.5 -148q-279 0 -434.5 144.5t-155.5 398.5q0 163 73 283t208 184t311 64q182 0 315.5 -67t205 -186t71.5 -266zM597 1186l-356 321h358l299 -321h-301z"/>
<glyph glyph-name="oacute" horiz-adv-x="1298" unicode="ó" d="M809 528q0 209 -160 209t-160 -219q0 -231 162 -231q158 0 158 241zM1241 530q0 -259 -156.5 -407t-437.5 -148q-279 0 -434.5 144.5t-155.5 398.5q0 163 73 283t208 184t311 64q182 0 315.5 -67t205 -186t71.5 -266zM702 1186h-301l299 321h358z"/>
<glyph glyph-name="ocircumflex" horiz-adv-x="1298" unicode="ô" d="M809 528q0 209 -160 209t-160 -219q0 -231 162 -231q158 0 158 241zM1241 530q0 -259 -156.5 -407t-437.5 -148q-279 0 -434.5 144.5t-155.5 398.5q0 163 73 283t208 184t311 64q182 0 315.5 -67t205 -186t71.5 -266zM795 1186l-148 153l-147 -153h-262l256 321h317 l256 -321h-272z"/>
<glyph glyph-name="otilde" horiz-adv-x="1298" unicode="õ" d="M809 528q0 209 -160 209t-160 -219q0 -231 162 -231q158 0 158 241zM1241 530q0 -259 -156.5 -407t-437.5 -148q-279 0 -434.5 144.5t-155.5 398.5q0 163 73 283t208 184t311 64q182 0 315.5 -67t205 -186t71.5 -266zM1040 1540q0 -165 -60 -252.5t-173 -87.5 q-88 0 -170 49q-34 20 -62.5 38t-60.5 18q-38 0 -60 -31t-22 -88h-174q0 170 61.5 255t167.5 85q102 0 189 -58q29 -18 55 -32.5t57 -14.5q34 0 55 29.5t21 89.5h176z"/>
<glyph glyph-name="odieresis" horiz-adv-x="1298" unicode="ö" d="M809 528q0 209 -160 209t-160 -219q0 -231 162 -231q158 0 158 241zM1241 530q0 -259 -156.5 -407t-437.5 04ABAB2A25"/>
<glyph glyph-name="divide" d="M893 170q0 -69 -45 -114.5t-113 -45.5q-67 0 -115.5 47.5t-48.5 110.5q0 69 46 116.5t118 47.5q68 0 113 -0810D4FA5E" unicode="÷"/>
<glyph glyph-name="oslash" horiz-adv-x="1298" unicode="ø" d="M850 528v33l-2 33l-318 -320q49 -28 121 -28q97 0 148 71.5t51 210.5zM750 762q-48 20 -99 20q-105 0 -152.5 -66.5t-47.5 -193.5v-29l2 -26zM1116 862q125 -148 125 -338q0 -256 -153.5 -401.5t-440.5 -145.5q-198 0 -338 78l-133 -135l-143 125l133 135 q-109 144 -109 340q0 163 73 283t208 184t311 64q182 0 318 -70l125 125l143 -125z"/>
<glyph glyph-name="ugrave" horiz-adv-x="1282" unicode="ù" d="M754 0v158h-4q-53 -73 -95.5 -107t-96 -55t-124.5 -21q-168 0 -256 109t-88 322v618h426v-586q0 -151 113 -151q62 0 93.5 41t31.5 116v580h426v-1024h-426zM583 1186l-356 321h358l299 -321h-301z"/>
<glyph glyph-name="uacute" horiz-adv-x="1282" unicode="ú" d="M754 0v158h-4q-53 -73 -95.5 -107t-96 -55t-124.5 -21q-168 0 -256 109t-88 322v618h426v-586q0 -151 113 -151q62 0 93.5 41t31.5 116v580h426v-1024h-426zM686 1186h-301l299 321h358z"/>
<glyph glyph-name="ucircumflex" horiz-adv-x="1282" unicode="û" d="M754 0v158h-4q-53 -73 -95.5 -107t-96 -55t-124.5 -21q-168 0 -256 109t-88 322v618h426v-586q0 -151 113 -151q62 0 93.5 41t31.5 116v580h426v-1024h-426zM787 1186l-148 153l-147 -153h-262l256 321h317l256 -321h-272z"/>
<glyph glyph-name="udieresis" horiz-adv-x="1282" unicode="ü" d="M754 0v158h-4q-53 -73 -95.5 -107t-96 -55t-124.5 -21q-168 0 -256 109t-88 322v618h426v-586q0 -151 113 062AD54A53"/>
<glyph glyph-name="yacute" horiz-adv-x="1176" unicode="ý" d="M301 -481q-60 0 -129 10.5t-123 30.5v321q25 -19 74.5 -35t93.5 -16q119 0 158 94l33 80l-428 1020h471l124 -494q36 -138 39 -186h4q3 22 8.5 49t155.5 631h414l-377 -1053q-85 -242 -210.5 -347t-307.5 -105zM661 1186h-301l299 321h358z"/>
<glyph glyph-name="thorn" horiz-adv-x="1315" unicode="þ" d="M825 530q0 97 -37.5 152t-115.5 55q-68 0 -110 -58t-42 -159v-20q0 -97 36 -155t108 -58q77 0 119 63.5t42 179.5zM1257 543q0 -168 -57 -297t-161 -200t-234 -71q-180 0 -273 131h-4v-577h-426v1987h426v-631h4q51 77 132 120.5t184 43.5q198 0 303.5 -132t105.5 -374z "/>
<glyph glyph-name="dotlessi" horiz-adv-x="631" unicode="ı" d="M102 0v1024h426v-1024h-426z"/>
<glyph glyph-name="OE" horiz-adv-x="1954" unicode="Œ" d="M946 1022q-65 68 -153 68q-130 0 -201.5 -99.5t-71.5 -285.5q0 -170 70.5 -265.5t195.5 -95.5q94 0 160 66v612zM979 0q-84 -25 -221 -25q-202 0 -361 93t-247.5 261t-88.5 369q0 222 89.5 396t253 269t372.5 95q62 0 126 -7t97 -17h859v-338h-461v-209h432v-338h-432 v-211h493v-338h-911z"/>
<glyph glyph-name="oe" horiz-adv-x="1898" unicode="œ" d="M809 526q0 98 -41 155.5t-117 57.5q-162 0 -162 -219q0 -231 162 -231q158 0 158 237zM1477 614q0 177 -127 177q-54 0 -89.5 -49.5t-41.5 -127.5h258zM1221 391q11 -67 75.5 -104t171.5 -37q73 0 150 16t133 41v-270q-70 -28 -163 -45t-173 -17q-235 0 -401 166h-4 q-63 -74 -167.5 -119t-240.5 -45q-156 0 -280.5 65t-194.5 188t-70 290q0 160 68.5 280.5t192 185.5t278.5 65q117 0 220 -37t173 -107h4q64 70 161.5 106t215.5 36q151 0 260 -63t166 -177t57 -258v-160h-632z"/>
<glyph glyph-name="Scaron" horiz-adv-x="1171" unicode="Š" d="M1137 434q0 -143 -76.5 -249t-214.5 -158t-332 -52q-225 0 -412 76v393q90 -66 199 -106.5t203 -40.5q71 0 110 25.5t39 74.5q0 35 -19.5 61.5t-59 49.5t-146.5 63q-346 133 -346 430q0 208 158 332.5t424 124.5q75 0 138 -6t114.5 -15t144.5 -34v-365q-181 99 -356 99 q-72 0 -116 -27t-44 -74q0 -45 35.5 -74.5t148.5 -76.5q223 -90 315.5 -197t92.5 -254zM1011 1857l-256 -321h-317l-256 321h262l147 -153l148 153h272z"/>
<glyph glyph-name="scaron" horiz-adv-x="989" unicode="š" d="M934 340q0 -174 -132.5 -269.5t-369.5 -95.5q-69 0 -170.5 14t-165.5 34v299q189 -84 316 -84q125 0 125 65q0 27 -29 44.5t-152 58.5q-136 43 -198 114t-62 185q0 159 126.5 251.5t355.5 92.5q134 0 284 -39v-287q-63 27 -138 45t-126 18q-42 0 -67 -14t-25 -39 q0 -29 27 -47t108 -43q157 -46 225 -118t68 -185zM915 1507l-256 -321h-317l-256 321h262l147 -153l148 153h272z"/>
<glyph glyph-name="Ydieresis" horiz-adv-x="1331" unicode="Ÿ" d="M874 498v-498h-432v492l-442 942h496l155 -451q16 -46 22.5 -80t14.5 -69h4q13 91 29 141l153 459h457zM6003E751DAEE"/>
<glyph glyph-name="circumflex" horiz-adv-x="785" unicode="ˆ" d="M539 1186l-148 153l-147 -153h-262l256 321h317l256 -321h-272z"/>
<glyph glyph-name="caron" horiz-adv-x="785" unicode="ˇ" d="M811 1507l-256 -321h-317l-256 321h262l147 -153l148 153h272z"/>
<glyph glyph-name="ring" horiz-adv-x="555" unicode="˚" d="M367 1421q0 32 -23.5 56t-73.5 24q-45 0 -67.5 -23t-22.5 -57t25.5 -57t64.5 -23q42 0 69.5 22.5t27.5 57.0A10DE9A31"/>
<glyph glyph-name="tilde" horiz-adv-x="785" unicode="˜" d="M784 1540q0 -165 -60 -252.5t-173 -87.5q-88 0 -170 49q-34 20 -62.5 38t-60.5 18q-38 0 -60 -31t-22 -88h-174q0 170 61.5 255t167.5 85q102 0 189 -58q29 -18 55 -32.5t57 -14.5q34 0 55 29.5t21 89.5h176z"/>
<glyph glyph-name="Alpha" horiz-adv-x="1536" unicode="Α" d="M768 1122h-10q-2 -24 -14 -79t-121 -472h274l-100 390q-21 86 -29 161zM1040 0l-63 264h-428l-68 -264h-467l494 1434h536l465 -1434h-469z"/>
<glyph glyph-name="Beta" horiz-adv-x="1415" unicode="Β" d="M907 442q0 62 -45 102t-119 40h-170v-293h144q88 0 139 40.5t51 110.5zM862 1012q0 133 -209 133h-80v-2710925B05A69"/>
<glyph glyph-name="Gamma" horiz-adv-x="1108" unicode="Γ" d="M573 1096v-1096h-432v1434h926v-338h-494z"/>
<glyph glyph-name="Delta" horiz-adv-x="1614" unicode="Δ" d="M811 1106h-10q-2 -12 -7.5 -50t-21.5 -87l-207 -631h473l-200 623q-21 60 -25 124zM74 0v164l477 1270h536l453 -1270v-164h-1466z"/>
<glyph glyph-name="Epsilon" horiz-adv-x="1130" unicode="Ε" d="M141 0v1434h893v-338h-461v-209h433v-338h-433v-211h494v-338h-926z"/>
<glyph glyph-name="Zeta" horiz-adv-x="1313" unicode="Ζ" d="M616 338h648v-338h-1203v303l662 793h-621v338h1141v-301z"/>
<glyph glyph-name="Eta" horiz-adv-x="1645" unicode="Η" d="M1069 0v535h-496v-535h-432v1434h432v-531h496v531h432v-1434h-432z"/>
<glyph glyph-name="Theta" horiz-adv-x="1567" unicode="Θ" d="M602 569v297h365v-297h-365zM1047 709q0 177 -68 279t-186 102q-129 0 -201 -98t-72 -277q0 -175 71.5 -2708C3FA5A5B"/>
<glyph glyph-name="Iota" horiz-adv-x="714" unicode="Ι" d="M141 0v1434h432v-1434h-432z"/>
<glyph glyph-name="Kappa" horiz-adv-x="1413" unicode="Κ" d="M934 0l-318 606q-32 72 -38 99h-5v-705h-432v1434h432v-682h5q19 54 43 100l286 582h512l-407 -684l446 -750h-524z"/>
<glyph glyph-name="Lambda" horiz-adv-x="1536" unicode="Λ" d="M1040 0l-245 961q-14 55 -19 90l-8 55h-10q-6 -34 -16.5 -81.5t-260.5 -1024.5h-467l494 1434h536l465 -1434h-469z"/>
<glyph glyph-name="Mu" horiz-adv-x="2021" unicode="Μ" d="M1454 0v786q0 111 7 244l3 66h-12q-32 -169 -49 -234l-211 -862h-406l-221 852q-9 32 -47 244h-12q14 -336 14 -420v-676h-379v1434h647l197 -779q7 -24 18.5 -97.5t14.5 -113.5h6q11 91 35 215l184 775h637v-1434h-426z"/>
<glyph glyph-name="Nu" horiz-adv-x="1663" unicode="Ν" d="M1143 0l-506 692q-60 82 -98 148h-4q6 -106 6 -238v-602h-400v1434h408l485 -658q9 -13 22 -31t26 -37t24.5 -37t17.5 -32h4q-6 44 -6 152v643h400v-1434h-379z"/>
<glyph glyph-name="Xi" horiz-adv-x="1212" unicode="Ξ" d="M66 0v338h1081v-338h-1081zM240 549v338h733v-338h-733zM86 1096v338h1040v-338h-1040z"/>
<glyph glyph-name="Omicron" horiz-adv-x="1567" unicode="Ο" d="M1047 709q0 177 -68 279t-186 102q-129 0 -201 -98t-72 -277q0 -175 71.5 -273t194.5 -98q75 0 135 44t93 0D3634CA87"/>
<glyph glyph-name="Pi" horiz-adv-x="1645" unicode="Π" d="M1069 0v1065h-496v-1065h-432v1434h1360v-1434h-432z"/>
<glyph glyph-name="Rho" horiz-adv-x="1343" unicode="Ρ" d="M856 946q0 88 -51 133t-150 45h-82v-354h97q186 0 186 176zM1313 961q0 -147 -74.5 -261t-212.5 -176.5t-321 -62.5h-132v-461h-432v1434h588q303 0 443.5 -115t140.5 -358z"/>
<glyph glyph-name="Sigma" horiz-adv-x="1260" unicode="Σ" d="M29 0v240l487 477l-465 465v252h1118v-338h-510l351 -359l-383 -399h598v-338h-1196z"/>
<glyph glyph-name="Tau" horiz-adv-x="1303" unicode="Τ" d="M866 1096v-1096h-434v1096h-401v338h1241v-338h-406z"/>
<glyph glyph-name="Upsilon" horiz-adv-x="1331" unicode="Υ" d="M874 498v-498h-432v492l-442 942h496l155 -451q16 -46 22.5 -80t14.5 -69h4q13 91 29 141l153 459h457z"/>
<glyph glyph-name="Phi" horiz-adv-x="1792" unicode="Φ" d="M696 993h-10q-90 0 -144.5 -73t-54.5 -183q0 -116 56.5 -185t142.5 -69h10v510zM1309 741q0 110 -53.5 181t-143.5 71h-12v-510h10q86 0 142.5 73t56.5 185zM1731 756q0 -165 -80 -298.5t-222.5 -208.5t-312.5 -75h-16v-199h-408v199h-16q-176 0 -318 74t-219.5 204.5 t-77.5 292.5q0 158 81.5 286.5t226.5 201t307 72.5h16v153h408v-155h18q168 0 309.5 -70.5t222.5 -196.5t81 -280z"/>
<glyph glyph-name="Chi" horiz-adv-x="1438" unicode="Χ" d="M930 0l-178 393q-17 37 -22.5 72.5t-8.5 58.5h-4q-6 -24 -14 -63t-23 -76l-166 -385h-514l430 715l-391 719h522l139 -379q19 -53 35 -140h4q16 98 37 142l162 377h481l-403 -711l422 -723h-508z"/>
<glyph glyph-name="Psi" horiz-adv-x="1782" unicode="Ψ" d="M1075 684h10q96 2 145.5 62t49.5 188v500h369v-543q0 -165 -70.5 -288.5t-199 -193.5t-296.5 -79h-8v-330h-368v330h-9q-168 8 -300 82t-198.5 196.5t-66.5 280.5v545h369v-500q0 -246 194 -250h11v750h368v-750z"/>
<glyph glyph-name="alpha" horiz-adv-x="1354" unicode="α" d="M845 176q-128 -201 -366 -201q-196 0 -309 138t-113 368q0 162 61 292.5t171 203t248 72.5q233 0 313 -144h4l35 119h424l-229 -515q17 -100 55 -153t88 -53q52 0 96 21v-303q-72 -39 -204 -39q-107 0 -173 46.5t-95 147.5h-6zM750 524q-21 122 -52.5 167.5t-85.5 45.5 q-58 0 -96.5 -63.5t-38.5 -167.5t29.5 -161.5t81.5 -57.5q46 0 84 49t63 133z"/>
<glyph glyph-name="beta" horiz-adv-x="1386" unicode="β" d="M887 436q0 82 -76.5 132t-202.5 50v283q207 0 207 174q0 69 -38 111.5t-99 42.5q-74 0 -112 -55.5t-38 -1400A2A33A34"/>
<glyph glyph-name="gamma" horiz-adv-x="1247" unicode="γ" d="M1186 907q0 -524 -398 -981v-110q0 -231 -4 -297h-424q8 79 13.5 232t5.5 269q-28 157 -146.5 432.5t-279.5 571.5h493q78 -172 148 -360.5t92 -292.5h4q96 206 96 508q0 61 -12 145h404q8 -77 8 -117z"/>
<glyph glyph-name="delta" horiz-adv-x="1298" unicode="δ" d="M809 494q0 76 -48.5 142.5t-129.5 98.5q-59 -20 -100.5 -89t-41.5 -146q0 -99 42.5 -156t117.5 -57q76 0 118 54.5t42 152.5zM1241 497q0 -159 -70 -276.5t-205.5 -181.5t-324.5 -64q-168 0 -298 58.5t-208 174t-78 253.5q0 148 81 267t240 196q-177 124 -177 284 q0 104 60 178.5t168.5 114t248.5 39.5q106 0 191.5 -15t224.5 -59v-356q-91 58 -189 88.5t-182 30.5q-35 0 -62.5 -15.5t-27.5 -46.5q0 -28 41.5 -59.5t128.5 -73.5l110 -56q169 -89 248.5 -208t79.5 -273z"/>
<glyph glyph-name="epsilon" horiz-adv-x="993" unicode="ε" d="M932 23q-165 -48 -402 -48q-236 0 -356.5 73.5t-120.5 217.5q0 102 56 168t159 94v4q-83 24 -130.5 86t-47.5 148q0 138 119.5 210.5t347.5 72.5q171 0 332 -39v-265l-62 19q-91 27 -178 27q-57 0 -92 -19.5t-35 -56.5q0 -86 160 -86q41 0 92 7l25 3v-242q-84 9 -152 9 q-74 0 -118 -20t-44 -62q0 -91 166 -91q78 0 147 18t134 40v-268z"/>
<glyph glyph-name="zeta" horiz-adv-x="995" unicode="ζ" d="M997 -68q0 -128 -100 -241h-448q55 38 85.5 83.5t30.5 88.5q0 29 -18 52t-53.5 45.5t-171.5 84.5q-265 1240F00558AEB"/>
<glyph glyph-name="eta" horiz-adv-x="1294" unicode="η" d="M766 -395v913q0 95 -28.5 136.5t-92.5 41.5q-55 0 -86 -43t-31 -110v-543h-426v668q0 116 -11 216t-30 140h433q14 -25 23 -71t9 -93h4q52 89 137.5 139t188.5 50q336 0 336 -424v-1020h-426z"/>
<glyph glyph-name="theta" horiz-adv-x="1298" unicode="θ" d="M494 612q12 -160 50 -241.5t107 -81.5q127 0 152 323h-309zM805 907q-9 153 -48 235.5t-108 82.5q-133 0 -0FA96D8A81"/>
<glyph glyph-name="iota" horiz-adv-x="772" unicode="ι" d="M748 14q-78 -39 -228 -39q-178 0 -278.5 98t-100.5 279v672h426v-590q0 -135 88 -135q41 0 93 25v-310z"/>
<glyph glyph-name="kappa" horiz-adv-x="1268" unicode="κ" d="M813 0l-201 369l-84 -72v-297h-426v1024h426v-374q211 224 255 267t82 69t79.5 40t92.5 14q39 0 86.5 -6t62.5 -12v-332q-39 15 -89 15q-75 0 -130 -48l-52 -44l361 -613h-463z"/>
<glyph glyph-name="lambda" horiz-adv-x="1217" unicode="λ" d="M756 0l-148 639l-133 -639h-448l426 1020l-13 31q-21 56 -65 88t-105 32q-79 0 -147 -51v344q109 41 246 41q174 0 293.5 -98t187.5 -309l346 -1098h-440z"/>
<glyph glyph-name="mu" horiz-adv-x="1341" unicode="μ" d="M784 133q-50 -156 -188 -156q-43 0 -66 13h-2v-385h-426v1419h426v-537q0 -70 14 -110.5t36 -59t63 -18.5q04DC55BA74"/>
<glyph glyph-name="nu" horiz-adv-x="1184" unicode="ν" d="M1110 741q0 -92 -22.5 -179t-61 -168.5t-99 -167.5t-190.5 -226h-370l-414 1024h442l217 -707q55 70 85 169.5t30 209.5q0 92 -25.5 197.5t-52.5 130.5h410q21 -28 36 -108t15 -175z"/>
<glyph glyph-name="xi" horiz-adv-x="1036" unicode="ξ" d="M1028 -41q0 -146 -100 -268h-449q48 29 82.5 69.5t34.5 87.5q0 54 -42 84.5t-138 59.5q-199 58 -279 149t-012EC70A11"/>
<glyph glyph-name="omicron" horiz-adv-x="1298" unicode="ο" d="M809 528q0 209 -160 209t-160 -219q0 -231 162 -231q158 0 158 241zM1241 530q0 -259 -156.5 -407t-437.5 -148q-279 0 -434.5 144.5t-155.5 398.5q0 163 73 283t208 184t311 64q182 0 315.5 -67t205 -186t71.5 -266z"/>
<glyph glyph-name="pi" horiz-adv-x="1541" unicode="π" d="M1255 729v-268q0 -94 21.5 -128t66.5 -34q41 0 91 25v-310q-101 -39 -213 -39q-193 0 -292.5 98.5t-99.5 293.5v362h-155v-399q0 -104 -9 -179.5t-38 -150.5h-432q53 159 53 360v369q-42 0 -110 -22t-130 -60v330q46 20 112.5 33.5t133.5 13.5h1221v-295h-220z"/>
<glyph glyph-name="rho" horiz-adv-x="1315" unicode="ρ" d="M825 514q0 102 -42 162.5t-113 60.5q-67 0 -104.5 -47t-37.5 -129v-223q29 -19 58.5 -35t75.5 -16q81 0 120010A53AC5"/>
<glyph glyph-name="sigma1" horiz-adv-x="1049" unicode="ς" d="M999 -66q0 -65 -27 -130.5t-73 -112.5h-434q54 38 85.5 83t31.5 89q0 97 -166 149q-170 54 -264.5 168.5t-01D6584A90"/>
<glyph glyph-name="sigma" horiz-adv-x="1335" unicode="σ" d="M764 520q0 43 -9 90.5t-36 118.5h-49q-82 0 -131.5 -57.5t-49.5 -171.5q0 -95 39 -154t105 -59q63 0 97 59.5t34 173.5zM1116 729q34 -47 57 -118.5t23 -143.5q0 -235 -146.5 -363.5t-410.5 -128.5q-272 0 -427 146.5t-155 396.5q0 235 149 370.5t419 135.5h690v-295 h-199z"/>
<glyph glyph-name="tau" horiz-adv-x="1237" unicode="τ" d="M827 729v-295q0 -69 29.5 -102t79.5 -33q29 0 49.5 6t48.5 17v-308q-29 -14 -95 -26.5t-159 -12.5q-178 0 -278.5 98t-100.5 279v377h-49q-178 0 -315 -104v321q136 78 360 78h774v-295h-344z"/>
<glyph glyph-name="upsilon" horiz-adv-x="1360" unicode="υ" d="M141 590q0 60 -15.5 89t-58.5 29q-33 0 -65 -13v298q72 39 225 39q178 0 259 -76.5t81 -255.5v-228q0 -78 38.5 -125.5t105.5 -47.5q65 0 100 47.5t35 138.5q0 139 -28 268.5t-86 270.5h438q102 -260 102 -512q0 -257 -150.5 -397t-427.5 -140q-180 0 -303.5 57.5 t-186.5 164.5t-63 260v133z"/>
<glyph glyph-name="phi" horiz-adv-x="1647" unicode="φ" d="M1198 522q0 217 -108 217q-80 0 -80 -123v-331h30q74 0 116 64.5t42 172.5zM1589 496q0 -153 -67.5 -272t-05E0417AD5"/>
<glyph glyph-name="chi" horiz-adv-x="1163" unicode="χ" d="M1167 -449q-49 -30 -180 -30q-134 0 -226 80t-163 254l-53 131l-156 -445h-440l428 778l-96 228q-54 123 -86 156.5t-74 33.5q-45 0 -94 -32v317q49 27 174 27t209 -59.5t135 -184.5l57 -146l111 365h444l-377 -698l113 -260q26 -58 45.5 -101t40 -71.5t45 -43 t59.5 -14.5q32 0 49 7t35 20v-312z"/>
<glyph glyph-name="psi" horiz-adv-x="1694" unicode="ψ" d="M1599 559q0 -178 -65 -311t-183.5 -203t-271.5 -70h-41v-456h-385v456h-39q-153 0 -272 71t-183.5 203t-64.5 310v465h383v-465q0 -135 38 -204.5t120 -69.5h18v1046h385v-1046h21q155 0 155 274v465h385v-465z"/>
<glyph glyph-name="theta1" horiz-adv-x="1632" unicode="ϑ" d="M1035 1008q-14 221 -134 221q-36 0 -58 -19.5t-22 -46.5q0 -61 63.5 -105.5t150.5 -49.5zM1480 1035q73 13063ADECA41"/>
<glyph glyph-name="Upsilon1" horiz-adv-x="1357" unicode="ϒ" d="M496 1434l158 -460q9 -24 27 -104h4q13 68 32 110l81 177q77 169 162 235t235 66q81 0 162 -27v-313q-38 11 -70 11q-44 0 -79.5 -36.5t-85.5 -134.5l-248 -475v-483h-432v492l-442 942h496z"/>
<glyph glyph-name="omega1" horiz-adv-x="2053" unicode="ϖ" d="M609 512q0 -97 32.5 -155t83.5 -58q60 0 84.5 45t24.5 129v157h385v-157q0 -88 26 -131t83 -43q51 0 83.5 59.5t32.5 153.5q0 95 -34 217h-767q-34 -115 -34 -217zM1831 478q0 -237 -127 -370t-350 -133q-108 0 -197.5 48t-132.5 131h-4q-41 -83 -127 -131t-198 -48 q-220 0 -346.5 136.5t-126.5 368.5q0 122 48 243q-126 -17 -233 -98v321q136 78 360 78h1590v-295h-207q51 -133 51 -251z"/>
<glyph glyph-name="uni2002" horiz-adv-x="1024" unicode=" "/>
<glyph glyph-name="uni2003" horiz-adv-x="2048" unicode=" "/>
<glyph glyph-name="afii61664" horiz-adv-x="0" unicode="‌" d="M36 1750v-2158h-72v2158h72z"/>
<glyph glyph-name="afii301" horiz-adv-x="0" unicode="‍" d="M36 -408h-72v1859l-134 -136l-49 49l171 169l-171 168l49 49l170 -171l170 171l49 -49l-171 -168l171 -169l-49 -49l-134 136v-1859z"/>
<glyph glyph-name="afii299" horiz-adv-x="0" unicode="‎" d="M431 1535l-217 -214l-49 49l137 130h-266v-1908h-72v1979h338l-137 130l49 49z"/>
<glyph glyph-name="endash" horiz-adv-x="1024" unicode="–" d="M0 393v287h1024v-287h-1024z"/>
<glyph glyph-name="emdash" horiz-adv-x="2048" unicode="—" d="M0 393v287h2048v-287h-2048z"/>
<glyph glyph-name="quoteleft" horiz-adv-x="694" unicode="‘" d="M457 1024h-369l240 444h250z"/>
<glyph glyph-name="quotesinglbase" horiz-adv-x="694" unicode="‚" d="M336 -225h-248l123 444h367z"/>
<glyph glyph-name="quotedblleft" horiz-adv-x="1188" unicode="“" d="M457 1024h-369l240 444h250zM950 1024h-368l239 444h250z"/>
<glyph glyph-name="quotedblright" horiz-adv-x="1188" unicode="”" d="M365 1024h-248l123 444h366zM858 1024h-248l123 444h367z"/>
<glyph glyph-name="dagger" horiz-adv-x="885" unicode="†" d="M575 907v-665h-266v665h-248v228h248v299h266v-299h248v-228h-248z"/>
<glyph glyph-name="daggerdbl" horiz-adv-x="885" unicode="‡" d="M575 543v-301h-266v301h-248v221h248v160h-248v227h248v283h266v-283h248v-227h-248v-160h248v-221h-248z"/>
<glyph glyph-name="ellipsis" horiz-adv-x="2142" unicode="…" d="M596 178q0 -91 -64 -147t-178 -56q-103 0 -168 59t-65 144q0 88 64.5 142.5t172.5 54.5q107 0 172.5 -54.5001B36CA83"/>
<glyph glyph-name="perthousand" horiz-adv-x="2642" unicode="‰" d="M575 1081q0 69 -25.5 109.5t-72.5 40.5q-52 0 -80 -42.5t-28 -115.5q0 -69 25.5 -108t76.5 -39q50 0 77 40t27 115zM1475 354q0 71 -27 111.5t-74 40.5q-52 0 -80 -42.5t-28 -115.5q0 -69 25.5 -108t76.5 -39q52 0 79.5 40t27.5 113zM2277 354q0 71 -27 111.5t-73 40.5 q-53 0 -81 -43.5t-28 -114.5q0 -70 26 -108.5t77 -38.5q52 0 79 40.5t27 112.5zM838 1092q0 -178 -103.5 -282.5t-275.5 -104.5q-162 0 -259.5 99t-97.5 261q0 176 101.5 282.5t277.5 106.5q166 0 261.5 -97t95.5 -265zM618 0h-315l922 1434h315zM1737 367q0 -175 -103 -281 t-278 -106q-162 0 -259.5 99t-97.5 261q0 178 104 282.5t277 104.5q166 0 261.5 -95t95.5 -265zM2540 367q0 -175 -103 -281t-278 -106q-162 0 -259.5 99t-97.5 261q0 178 104 282.5t277 104.5q166 0 261.5 -95t95.5 -265z"/>
<glyph glyph-name="minute" horiz-adv-x="653" unicode="′" d="M365 912h-248l123 522h296z"/>
<glyph glyph-name="second" horiz-adv-x="1189" unicode="″" d="M901 912h-248l123 522h296zM365 912h-248l123 522h296z"/>
<glyph glyph-name="guilsinglleft" horiz-adv-x="750" unicode="‹" d="M381 201l-348 336l348 344h334l-350 -344l352 -336h-336z"/>
<glyph glyph-name="guilsinglright" horiz-adv-x="750" unicode="›" d="M369 201h-336l352 336l-350 344h334l348 -344z"/>
<glyph glyph-name="uni203E" horiz-adv-x="850" unicode="‾" d="M850 1397h-850v119h850v-119z"/>
<glyph glyph-name="Euro" horiz-adv-x="1227" unicode="€" d="M1145 41q-46 -31 -138.5 -49.5t-187.5 -18.5q-226 0 -377 119t-202 340h-136v213h101l-2 55v34l2 34h-101v209h132q53 231 214 356t408 125q78 0 160 -15.5t127 -39.5v-322q-114 95 -248 95q-108 0 -180 -51.5t-103 -147.5h381v-209h-417l-3 -66l3 -57h417v-213h-374 q34 -85 100 -131.5t162 -46.5q142 0 262 94v-307z"/>
<glyph glyph-name="trademark" horiz-adv-x="1577" unicode="™" d="M403 1296v-524h-182v524h-149v138h489v-138h-158zM1210 772v434h-6l-106 -434h-207l-90 438h-6v-438h-181v662h291l94 -435h5l118 435h264v-662h-176z"/>
<glyph glyph-name="arrowleft" horiz-adv-x="1767" unicode="←" d="M1536 530h-1190l123 -118v-148l-319 332v4l319 332v-148l-125 -120h1192v-134z"/>
<glyph glyph-name="arrowup" horiz-adv-x="967" unicode="↑" d="M416 -12v1188l-119 -121h-147l331 319h4l332 -319h-147l-121 123v-1190h-133z"/>
<glyph glyph-name="arrowright" horiz-adv-x="1767" unicode="→" d="M231 664h1190l-123 120v148l320 -332v-4l-320 -332v148l121 118h-1188v134z"/>
<glyph glyph-name="arrowdown" horiz-adv-x="967" unicode="↓" d="M549 1376v-1192l121 125h147l-332 -319h-4l-331 319h147l119 -123v1190h133z"/>
<glyph glyph-name="partialdiff" horiz-adv-x="1247" unicode="∂" d="M762 608q-11 54 -38.5 83.5t-68.5 29.5q-49 0 -91 -44.5t-68.5 -117t-26.5 -137.5q0 -71 27 -103t69 -32q65 0 118 87.5t79 233.5zM1227 907q0 -289 -88.5 -504t-249.5 -321.5t-383 -106.5q-220 0 -338.5 112.5t-118.5 322.5q0 156 69 297t183.5 213.5t257.5 72.5 q175 0 264 -131h4l2 22v21q0 156 -58 228.5t-179 72.5q-66 0 -141.5 -17t-143.5 -48l80 311q159 57 307 57q265 0 399 -148t134 -454z"/>
<glyph glyph-name="product" horiz-adv-x="1681" unicode="∏" d="M1130 -471v1536h-557v-1536h-432v1905h1422v-1905h-433z"/>
<glyph glyph-name="summation" horiz-adv-x="1358" unicode="∑" d="M49 -471v240l559 723l-536 690v252h1220v-338h-618l428 -594l-455 -635h680v-338h-1278z"/>
<glyph glyph-name="minus" d="M238 455v247h991v-247h-991z" unicode="−"/>
<glyph glyph-name="radical" horiz-adv-x="1331" unicode="√" d="M838 -2h-263l-319 711h-188v206h409l221 -505l306 1106h249z"/>
<glyph glyph-name="infinity" horiz-adv-x="1655" unicode="∞" d="M696 596q-43 64 -68 89t-54.5 38.5t-67.5 13.5q-61 0 -103.5 -41.5t-42.5 -97.5q0 -64 42.5 -103.5t107.5 -39.5q104 0 186 141zM1303 573q0 65 -41.5 104.5t-108.5 39.5q-105 0 -186 -142q57 -85 98 -113t92 -28q58 0 102 40.5t44 98.5zM1599 569q0 -107 -51.5 -200 t-141 -146t-196.5 -53q-127 0 -218.5 61.5t-160.5 180.5q-66 -101 -168 -162.5t-212 -61.5q-171 0 -279.5 113.5t-108.5 300.5q0 107 51.5 199.5t141.5 146t197 53.5q127 0 217.5 -61t158.5 -180q66 101 170 162t213 61q172 0 279.5 -114t107.5 -300z"/>
<glyph glyph-name="intersection" horiz-adv-x="1437" unicode="∩" d="M712 899q-127 0 -203.5 -87t-76.5 -244v-452h-202v453q0 162 63.5 283t176.5 186t249 65q139 0 251 -64.5t0BA82FDAB2"/>
<glyph glyph-name="therefore" horiz-adv-x="1426" unicode="∴" d="M709 803q-78 0 -130 48t-52 118q0 72 53.5 118t133.5 46q81 0 132.5 -46.5t51.5 -117.5q0 -73 -52.5 -119.0F60246A1A"/>
<glyph glyph-name="approxequal" d="M1270 539q-6 -175 -93 -281t-231 -106q-78 0 -137 20t-136 65q-76 44 -116 44q-48 0 -78.5 -36t-36.5 -106h-247q5 181 93 285t238 104q115 0 224 -61q47 -26 86 -47t77 -21q47 0 77 40t32 100h248zM1270 1012q-6 -178 -94 -283.5t-230 -105.5q-78 0 -137 20t-136 65 q-76 44 -116 44q-47 0 -78 -35.5t-37 -104.5h-247q5 179 92.5 283t238.5 104q115 0 224 -61q47 -26 86 -47t77 -21q48 0 77.5 41t31.5 101h248z" unicode="≈"/>
<glyph glyph-name="notequal" d="M709 236l-125 -236h-316l125 236h-155v247h286l97 183h-383v247h514l143 275h315l-143 -275h162v-247h-293l-96 -183h389v-247h-520z" unicode="≠"/>
<glyph glyph-name="equivalence" d="M238 25v247h991v-247h-991zM238 455v247h991v-247h-991zM238 885v247h991v-247h-991z" unicode="≡"/>
<glyph glyph-name="lessequal" d="M238 0v248h991v-248h-991zM238 643v258l991 356v-292l-703 -195v-4l703 -195v-292z" unicode="≤"/>
<glyph glyph-name="greaterequal" d="M238 0v248h991v-248h-991zM238 279v292l700 195v4l-700 195v292l991 -356v-258z" unicode="≥"/>
<glyph glyph-name="lozenge" horiz-adv-x="1203" unicode="◊" d="M899 717l-299 471l-299 -471l299 -471zM1128 717l-473 -717h-114l-469 715l469 719h114z"/>
<glyph glyph-name="spade" horiz-adv-x="1402" unicode="♠" d="M705 1458q44 -52 105.5 -105.5t128.5 -112.5t133 -124t118.5 -138.5t85 -156.5t32.5 -178q0 -98 -40 -175t-110 -119.5t-153 -42.5q-120 0 -193 60q10 -87 52.5 -164t101.5 -127v-75h-530v75q59 50 101.5 127t52.5 164q-73 -60 -193 -60q-82 0 -152.5 42.5t-110.5 119 t-40 175.5q0 95 32.5 178t85 156.5t118.5 138.5t133 124t128.5 113t105.5 105h8z"/>
<glyph glyph-name="club" horiz-adv-x="1402" unicode="♣" d="M436 0v75q70 58 110 156t40 211q-43 -30 -83 -43t-95 -13q-136 0 -225 87t-89 226q0 134 89 223t223 91q-16 52 -16 107q0 86 39.5 158.5t112 114t159.5 41.5q88 0 160 -41.5t111.5 -113.5t39.5 -159q0 -55 -16 -107q134 -2 223 -91t89 -223q0 -90 -40 -162t-113 -111.5 t-161 -39.5q-53 0 -93.5 13t-84.5 43q0 -118 40.5 -215t109.5 -152v-75h-530z"/>
<glyph glyph-name="heart" horiz-adv-x="1402" unicode="♥" d="M1002 1315q87 0 157.5 -42.5t109.5 -122.5t39 -187q0 -100 -32 -186.5t-84 -162.5t-117.5 -142.5t-132.5 -127t-129.5 -116t-107.5 -108.5h-9q-45 53 -107 108.5t-129 116t-132.5 127t-117.5 142.5t-84 162.5t-32 186.5q0 107 39 186.5t109 122.5t158 43q190 0 296 -180 h9q106 180 297 180z"/>
<glyph glyph-name="diamond" horiz-adv-x="1402" unicode="♦" d="M205 716l496 718l497 -718l-497 -716z"/>
<glyph glyph-name="glyph240" d="M106 584v215h179v405l-199 -33v215l459 68v-655h164v-215h-603z" horiz-adv-x="758"/>
<glyph glyph-name="glyph241" d="M49 584v190l258 232q53 47 68.5 72.5t15.5 68.5q0 28 -19.5 50t-66.5 22q-79 0 -205 -101v258q60 32 123 55t135 23q153 0 239.5 -70.5t86.5 -197.5q0 -59 -24 -111t-72 -104.5t-199 -167.5v-4h299v-215h-639z" horiz-adv-x="758"/>
<glyph glyph-name="glyph242" d="M690 836q0 -125 -106.5 -199t-276.5 -74q-80 0 -136 16.5t-99 34.5v197q106 -53 217 -53q135 0 135 80q0 37 -34.5 58.5t-100.5 21.5h-139v194h131q56 0 87 20t31 56q0 32 -27 52t-75 20q-113 0 -203 -56v193q124 57 256 57q147 0 230.5 -59t83.5 -164q0 -74 -38 -123.5 t-104 -67.5v-4q77 -16 122.5 -70t45.5 -130z" horiz-adv-x="758"/>
</font>
</defs>
</svg>
